<?xml version="1.0" encoding="UTF-8"?>
<!DOCTYPE svg PUBLIC "-//W3C//DTD SVG 1.1//EN" "http://www.w3.org/Graphics/SVG/1.1/DTD/svg11.dtd">
<svg xmlns="http://www.w3.org/2000/svg" version="1.1" width="800px" height="800px" style="shape-rendering:geometricPrecision; text-rendering:geometricPrecision; image-rendering:optimizeQuality; fill-rule:evenodd; clip-rule:evenodd" xmlns:xlink="http://www.w3.org/1999/xlink">
<g><path style="opacity:0.998" fill="#9dbf81" d="M 392.5,159.5 C 402.85,159.44 413.183,159.774 423.5,160.5C 424.091,161.151 424.757,161.818 425.5,162.5C 424.855,168.511 424.855,174.511 425.5,180.5C 423.143,180.337 420.81,180.503 418.5,181C 417.594,182.699 417.261,184.533 417.5,186.5C 418.833,186.5 420.167,186.5 421.5,186.5C 421.5,189.833 421.5,193.167 421.5,196.5C 420.5,196.5 419.5,196.5 418.5,196.5C 417.483,199.027 417.483,201.527 418.5,204C 418.2,206.024 417.367,206.524 416,205.5C 415.355,209.591 414.355,213.591 413,217.5C 410.667,217.833 408.333,218.167 406,218.5C 406.267,222.441 406.434,226.441 406.5,230.5C 407.5,230.5 408.5,230.5 409.5,230.5C 408.978,234.989 407.978,239.323 406.5,243.5C 405.5,243.5 404.5,243.5 403.5,243.5C 403.482,247.607 402.815,251.607 401.5,255.5C 400.155,258.056 398.488,259.556 396.5,260C 399.685,263.432 400.351,267.432 398.5,272C 399.217,273.531 400.217,274.864 401.5,276C 402.608,277.677 402.608,279.177 401.5,280.5C 392.167,270.5 382.5,260.833 372.5,251.5C 372.25,250.078 371.417,249.078 370,248.5C 368.635,238.557 368.135,228.557 368.5,218.5C 369.93,218.579 371.264,218.246 372.5,217.5C 373.325,213.878 373.825,210.211 374,206.5C 375.699,205.594 377.533,205.261 379.5,205.5C 379.347,199.131 379.68,192.797 380.5,186.5C 382.541,186.854 384.374,186.854 386,186.5C 386.74,178.433 387.073,170.433 387,162.5C 389.326,162.12 391.159,161.12 392.5,159.5 Z"/></g>
<g><path style="opacity:0.997" fill="#91bb84" d="M 392.5,159.5 C 391.159,161.12 389.326,162.12 387,162.5C 387.073,170.433 386.74,178.433 386,186.5C 384.374,186.854 382.541,186.854 380.5,186.5C 379.68,192.797 379.347,199.131 379.5,205.5C 377.533,205.261 375.699,205.594 374,206.5C 373.825,210.211 373.325,213.878 372.5,217.5C 371.264,218.246 369.93,218.579 368.5,218.5C 368.135,228.557 368.635,238.557 370,248.5C 371.417,249.078 372.25,250.078 372.5,251.5C 364.996,246.248 357.329,241.248 349.5,236.5C 348.878,234.665 347.544,233.498 345.5,233C 346.167,232.333 346.833,231.667 347.5,231C 344.044,230.82 340.711,230.153 337.5,229C 338.167,228.667 338.833,228.333 339.5,228C 338.449,226.615 337.116,225.615 335.5,225C 337.25,223.246 337.917,221.079 337.5,218.5C 339.167,218.5 340.833,218.5 342.5,218.5C 342.334,214.486 342.501,210.486 343,206.5C 344.011,205.663 345.178,205.33 346.5,205.5C 346.5,204.5 346.5,203.5 346.5,202.5C 347.5,202.5 348.5,202.5 349.5,202.5C 348.989,193.251 348.989,183.918 349.5,174.5C 351.5,174.5 353.5,174.5 355.5,174.5C 356.069,170.671 355.402,167.337 353.5,164.5C 366.187,161.464 379.187,159.798 392.5,159.5 Z"/></g>
<g><path style="opacity:0.998" fill="#a5c380" d="M 423.5,160.5 C 431.07,161.204 438.403,162.538 445.5,164.5C 444.5,164.5 443.5,164.5 442.5,164.5C 443.354,170.121 443.687,175.788 443.5,181.5C 441.5,181.5 439.5,181.5 437.5,181.5C 437.666,187.176 437.499,192.843 437,198.5C 435.688,200.658 434.022,200.991 432,199.5C 431.832,207.853 431.332,216.187 430.5,224.5C 428.958,225.747 427.458,225.747 426,224.5C 425.629,232.342 425.129,240.176 424.5,248C 427.062,254.042 425.062,256.875 418.5,256.5C 418.666,262.509 418.499,268.509 418,274.5C 416.333,275.833 414.667,275.833 413,274.5C 412.667,280.5 412.333,286.5 412,292.5C 410.842,292.998 410.009,293.831 409.5,295C 410.823,299.099 411.823,303.265 412.5,307.5C 411.833,308.5 411.167,309.5 410.5,310.5C 412.491,313.171 412.491,316.004 410.5,319C 411.252,319.671 411.586,320.504 411.5,321.5C 405.511,316.843 399.844,311.843 394.5,306.5C 394.577,305.25 395.244,304.417 396.5,304C 395.333,303.5 394.5,302.667 394,301.5C 393.333,294.5 393.333,287.5 394,280.5C 394.671,279.748 395.504,279.414 396.5,279.5C 397.885,280.614 399.385,281.614 401,282.5C 401.464,281.906 401.631,281.239 401.5,280.5C 402.608,279.177 402.608,277.677 401.5,276C 400.217,274.864 399.217,273.531 398.5,272C 400.351,267.432 399.685,263.432 396.5,260C 398.488,259.556 400.155,258.056 401.5,255.5C 402.815,251.607 403.482,247.607 403.5,243.5C 404.5,243.5 405.5,243.5 406.5,243.5C 407.978,239.323 408.978,234.989 409.5,230.5C 408.5,230.5 407.5,230.5 406.5,230.5C 406.434,226.441 406.267,222.441 406,218.5C 408.333,218.167 410.667,217.833 413,217.5C 414.355,213.591 415.355,209.591 416,205.5C 417.367,206.524 418.2,206.024 418.5,204C 417.483,201.527 417.483,199.027 418.5,196.5C 419.5,196.5 420.5,196.5 421.5,196.5C 421.5,193.167 421.5,189.833 421.5,186.5C 420.167,186.5 418.833,186.5 417.5,186.5C 417.261,184.533 417.594,182.699 418.5,181C 420.81,180.503 423.143,180.337 425.5,180.5C 424.855,174.511 424.855,168.511 425.5,162.5C 424.757,161.818 424.091,161.151 423.5,160.5 Z"/></g>
<g><path style="opacity:0.998" fill="#abc57f" d="M 445.5,164.5 C 453.312,165.529 460.978,167.196 468.5,169.5C 469.418,173.212 469.418,176.878 468.5,180.5C 464.843,180.12 463.843,181.453 465.5,184.5C 465.444,185.737 464.944,186.737 464,187.5C 463.667,185.167 463.333,182.833 463,180.5C 462.333,184.5 462.333,188.5 463,192.5C 463.333,191.5 463.667,190.5 464,189.5C 464.167,190.167 464.333,190.833 464.5,191.5C 463.453,193.056 462.786,194.723 462.5,196.5C 461.5,196.5 460.5,196.5 459.5,196.5C 459.5,197.5 459.5,198.5 459.5,199.5C 460.833,199.5 462.167,199.5 463.5,199.5C 464.691,204.118 463.025,206.618 458.5,207C 459.654,207.914 459.487,208.747 458,209.5C 457.667,209.167 457.333,208.833 457,208.5C 456.39,211.827 455.89,215.161 455.5,218.5C 454.5,218.5 453.5,218.5 452.5,218.5C 451.956,220.58 451.122,222.58 450,224.5C 449.941,231.986 449.107,239.319 447.5,246.5C 446.167,246.5 444.833,246.5 443.5,246.5C 443.112,251.246 443.112,255.912 443.5,260.5C 441.135,262.588 440.135,265.254 440.5,268.5C 439.5,268.5 438.5,268.5 437.5,268.5C 436.637,274.455 436.303,280.455 436.5,286.5C 434.533,286.261 432.699,286.594 431,287.5C 430.501,293.491 430.334,299.491 430.5,305.5C 428.5,305.5 426.5,305.5 424.5,305.5C 424.66,314.434 424.326,323.101 423.5,331.5C 419.183,328.514 415.183,325.18 411.5,321.5C 411.586,320.504 411.252,319.671 410.5,319C 412.491,316.004 412.491,313.171 410.5,310.5C 411.167,309.5 411.833,308.5 412.5,307.5C 411.823,303.265 410.823,299.099 409.5,295C 410.009,293.831 410.842,292.998 412,292.5C 412.333,286.5 412.667,280.5 413,274.5C 414.667,275.833 416.333,275.833 418,274.5C 418.499,268.509 418.666,262.509 418.5,256.5C 425.062,256.875 427.062,254.042 424.5,248C 425.129,240.176 425.629,232.342 426,224.5C 427.458,225.747 428.958,225.747 430.5,224.5C 431.332,216.187 431.832,207.853 432,199.5C 434.022,200.991 435.688,200.658 437,198.5C 437.499,192.843 437.666,187.176 437.5,181.5C 439.5,181.5 441.5,181.5 443.5,181.5C 443.687,175.788 443.354,170.121 442.5,164.5C 443.5,164.5 444.5,164.5 445.5,164.5 Z"/></g>
<g><path style="opacity:0.998" fill="#b8ca7b" d="M 481.5,174.5 C 487.716,176.275 493.716,178.608 499.5,181.5C 499.821,183.048 500.821,183.715 502.5,183.5C 502.657,184.873 502.49,186.207 502,187.5C 501.086,186.346 500.253,186.513 499.5,188C 500.367,191.443 500.701,194.776 500.5,198C 498.52,200.164 496.187,201.664 493.5,202.5C 494.146,206.011 494.479,209.511 494.5,213C 492.764,217.207 491.431,221.541 490.5,226C 489.164,228.035 487.83,230.035 486.5,232C 489.014,234.096 489.681,236.596 488.5,239.5C 487.749,238.624 487.249,237.624 487,236.5C 486,236.833 485,237.167 484,237.5C 483.647,241.117 482.814,244.617 481.5,248C 482.167,250 482.833,250 483.5,248C 484.007,245.459 484.674,242.959 485.5,240.5C 485.833,241.5 486.167,242.5 486.5,243.5C 485.474,246.04 485.474,248.54 486.5,251C 485.114,253.732 484.114,256.565 483.5,259.5C 484.5,259.5 485.5,259.5 486.5,259.5C 487.459,262.384 487.625,265.051 487,267.5C 486.282,268.451 485.449,268.617 484.5,268C 482.782,263.254 481.782,263.421 481.5,268.5C 478.636,268.064 476.303,268.897 474.5,271C 476.473,271.495 478.473,271.662 480.5,271.5C 480.5,276.5 480.5,281.5 480.5,286.5C 478.5,286.5 476.5,286.5 474.5,286.5C 474.666,292.509 474.499,298.509 474,304.5C 472.301,305.406 470.467,305.739 468.5,305.5C 467.048,297.702 466.381,298.036 466.5,306.5C 465.5,306.5 464.5,306.5 463.5,306.5C 463.296,309.518 462.963,312.518 462.5,315.5C 461.5,315.5 460.5,315.5 459.5,315.5C 460.75,316.701 461.75,318.701 462.5,321.5C 461.613,328.47 461.279,335.47 461.5,342.5C 459.08,342.292 456.747,342.626 454.5,343.5C 453.134,346.257 453.801,348.423 456.5,350C 455.829,350.986 455.829,352.153 456.5,353.5C 453.46,352.32 450.794,350.653 448.5,348.5C 447.859,347.518 447.193,346.518 446.5,345.5C 447.262,345.089 448.262,344.923 449.5,345C 448.833,344.333 448.167,343.667 447.5,343C 449.25,341.246 449.917,339.079 449.5,336.5C 443.56,338.899 441.227,336.899 442.5,330.5C 440.833,330.5 439.167,330.5 437.5,330.5C 436.716,324.914 436.383,319.414 436.5,314C 436.645,313.228 436.978,312.561 437.5,312C 439.473,311.505 441.473,311.338 443.5,311.5C 443.012,301.106 443.012,290.773 443.5,280.5C 445.5,280.5 447.5,280.5 449.5,280.5C 449.462,277.379 448.795,274.379 447.5,271.5C 449.568,268.923 450.901,265.923 451.5,262.5C 452.736,261.754 454.07,261.421 455.5,261.5C 455.642,257.455 455.642,253.621 455.5,250C 459.821,249.501 464.154,249.334 468.5,249.5C 468.214,247.723 467.547,246.056 466.5,244.5C 467.535,233.864 468.202,223.197 468.5,212.5C 471.157,212.838 473.49,212.171 475.5,210.5C 474.684,206.92 474.35,203.42 474.5,200C 475.264,197.931 475.764,195.764 476,193.5C 477.356,192.62 478.856,192.286 480.5,192.5C 480.833,186.5 481.167,180.5 481.5,174.5 Z"/></g>
<g><path style="opacity:0.99" fill="#78b185" d="M 312.5,176.5 C 312.533,183.87 312.699,191.203 313,198.5C 310.959,199.423 308.792,199.756 306.5,199.5C 306.5,205.5 306.5,211.5 306.5,217.5C 302.107,217.457 301.774,217.957 305.5,219C 304.552,219.483 303.552,219.649 302.5,219.5C 299.287,219.81 296.287,219.477 293.5,218.5C 287.87,217.544 278.203,217.044 264.5,217C 265.931,216.535 267.097,215.701 268,214.5C 268.215,209.085 268.715,203.752 269.5,198.5C 282.523,188.821 296.856,181.487 312.5,176.5 Z"/></g>
<g><path style="opacity:0.998" fill="#bfcb7a" d="M 499.5,181.5 C 507.477,184.485 514.81,188.485 521.5,193.5C 520.5,193.5 519.5,193.5 518.5,193.5C 518.666,199.509 518.499,205.509 518,211.5C 516.43,211.67 514.597,212.003 512.5,212.5C 512.342,216.212 512.342,219.712 512.5,223C 509.935,223.96 507.769,225.46 506,227.5C 505.391,232.861 505.558,238.195 506.5,243.5C 504.167,243.5 501.833,243.5 499.5,243.5C 499.73,253.684 499.73,264.017 499.5,274.5C 497.5,274.5 495.5,274.5 493.5,274.5C 493.5,276.5 493.5,278.5 493.5,280.5C 494.5,280.5 495.5,280.5 496.5,280.5C 497.403,282.609 498.237,284.609 499,286.5C 497.333,287.833 495.667,287.833 494,286.5C 494.921,291.898 492.754,294.231 487.5,293.5C 486.949,301.415 486.949,309.248 487.5,317C 485.406,318.352 483.073,318.852 480.5,318.5C 480.698,327.417 480.698,336.417 480.5,345.5C 476.5,345.833 476.5,346.167 480.5,346.5C 479.833,348.5 479.167,350.5 478.5,352.5C 477.5,352.5 476.5,352.5 475.5,352.5C 475.167,350.5 474.833,348.5 474.5,346.5C 473.5,346.5 472.5,346.5 471.5,346.5C 471.5,347.833 471.5,349.167 471.5,350.5C 472.5,350.5 473.5,350.5 474.5,350.5C 474.216,352.877 474.216,355.044 474.5,357C 476.107,357.115 477.607,356.615 479,355.5C 481.478,356.332 483.978,356.499 486.5,356C 487.406,357.699 487.739,359.533 487.5,361.5C 485.473,361.338 483.473,361.505 481.5,362C 482.737,362.232 483.737,362.732 484.5,363.5C 474.525,361.84 465.192,358.507 456.5,353.5C 455.829,352.153 455.829,350.986 456.5,350C 453.801,348.423 453.134,346.257 454.5,343.5C 456.747,342.626 459.08,342.292 461.5,342.5C 461.279,335.47 461.613,328.47 462.5,321.5C 461.75,318.701 460.75,316.701 459.5,315.5C 460.5,315.5 461.5,315.5 462.5,315.5C 462.963,312.518 463.296,309.518 463.5,306.5C 464.5,306.5 465.5,306.5 466.5,306.5C 466.381,298.036 467.048,297.702 468.5,305.5C 470.467,305.739 472.301,305.406 474,304.5C 474.499,298.509 474.666,292.509 474.5,286.5C 476.5,286.5 478.5,286.5 480.5,286.5C 480.5,281.5 480.5,276.5 480.5,271.5C 478.473,271.662 476.473,271.495 474.5,271C 476.303,268.897 478.636,268.064 481.5,268.5C 481.782,263.421 482.782,263.254 484.5,268C 485.449,268.617 486.282,268.451 487,267.5C 487.625,265.051 487.459,262.384 486.5,259.5C 485.5,259.5 484.5,259.5 483.5,259.5C 484.114,256.565 485.114,253.732 486.5,251C 485.474,248.54 485.474,246.04 486.5,243.5C 486.167,242.5 485.833,241.5 485.5,240.5C 484.674,242.959 484.007,245.459 483.5,248C 482.833,250 482.167,250 481.5,248C 482.814,244.617 483.647,241.117 484,237.5C 485,237.167 486,236.833 487,236.5C 487.249,237.624 487.749,238.624 488.5,239.5C 489.681,236.596 489.014,234.096 486.5,232C 487.83,230.035 489.164,228.035 490.5,226C 491.431,221.541 492.764,217.207 494.5,213C 494.479,209.511 494.146,206.011 493.5,202.5C 496.187,201.664 498.52,200.164 500.5,198C 500.701,194.776 500.367,191.443 499.5,188C 500.253,186.513 501.086,186.346 502,187.5C 502.49,186.207 502.657,184.873 502.5,183.5C 500.821,183.715 499.821,183.048 499.5,181.5 Z"/></g>
<g><path style="opacity:0.999" fill="#c4cd78" d="M 521.5,193.5 C 527.178,196.336 532.511,199.669 537.5,203.5C 537.664,206.187 537.497,208.854 537,211.5C 534.959,212.423 532.792,212.756 530.5,212.5C 530.5,220.5 530.5,228.5 530.5,236.5C 528.533,236.261 526.699,236.594 525,237.5C 524.501,241.486 524.334,245.486 524.5,249.5C 522.5,249.5 520.5,249.5 518.5,249.5C 518.573,257.854 518.24,266.188 517.5,274.5C 515.833,274.5 514.167,274.5 512.5,274.5C 512.049,282.882 512.049,291.215 512.5,299.5C 510.208,299.244 508.041,299.577 506,300.5C 505.501,306.491 505.334,312.491 505.5,318.5C 503.5,318.5 501.5,318.5 499.5,318.5C 499.5,328.833 499.5,339.167 499.5,349.5C 501.5,349.5 503.5,349.5 505.5,349.5C 504.599,353.241 505.932,355.241 509.5,355.5C 509.667,352.043 510.667,351.71 512.5,354.5C 511.397,371.628 511.397,388.628 512.5,405.5C 511.127,405.343 509.793,405.51 508.5,406C 509.833,407.667 509.833,409.333 508.5,411C 509.5,411.333 510.5,411.667 511.5,412C 509.833,412.333 508.167,412.667 506.5,413C 509.992,412.93 512.992,413.763 515.5,415.5C 507.336,417.042 499.336,416.375 491.5,413.5C 491.729,411.567 492.562,409.9 494,408.5C 495.342,409.902 496.176,409.569 496.5,407.5C 496.113,402.907 496.113,398.24 496.5,393.5C 497.5,393.5 498.5,393.5 499.5,393.5C 498.459,390.458 498.459,387.458 499.5,384.5C 502.797,384.671 503.131,384.005 500.5,382.5C 501.167,381.833 501.833,381.167 502.5,380.5C 501.873,379.583 501.539,378.583 501.5,377.5C 506.791,372.95 506.791,368.45 501.5,364C 495.843,363.501 490.176,363.334 484.5,363.5C 483.737,362.732 482.737,362.232 481.5,362C 483.473,361.505 485.473,361.338 487.5,361.5C 487.739,359.533 487.406,357.699 486.5,356C 483.978,356.499 481.478,356.332 479,355.5C 477.607,356.615 476.107,357.115 474.5,357C 474.216,355.044 474.216,352.877 474.5,350.5C 473.5,350.5 472.5,350.5 471.5,350.5C 471.5,349.167 471.5,347.833 471.5,346.5C 472.5,346.5 473.5,346.5 474.5,346.5C 474.833,348.5 475.167,350.5 475.5,352.5C 476.5,352.5 477.5,352.5 478.5,352.5C 479.167,350.5 479.833,348.5 480.5,346.5C 476.5,346.167 476.5,345.833 480.5,345.5C 480.698,336.417 480.698,327.417 480.5,318.5C 483.073,318.852 485.406,318.352 487.5,317C 486.949,309.248 486.949,301.415 487.5,293.5C 492.754,294.231 494.921,291.898 494,286.5C 495.667,287.833 497.333,287.833 499,286.5C 498.237,284.609 497.403,282.609 496.5,280.5C 495.5,280.5 494.5,280.5 493.5,280.5C 493.5,278.5 493.5,276.5 493.5,274.5C 495.5,274.5 497.5,274.5 499.5,274.5C 499.73,264.017 499.73,253.684 499.5,243.5C 501.833,243.5 504.167,243.5 506.5,243.5C 505.558,238.195 505.391,232.861 506,227.5C 507.769,225.46 509.935,223.96 512.5,223C 512.342,219.712 512.342,216.212 512.5,212.5C 514.597,212.003 516.43,211.67 518,211.5C 518.499,205.509 518.666,199.509 518.5,193.5C 519.5,193.5 520.5,193.5 521.5,193.5 Z"/></g>
<g><path style="opacity:0.973" fill="#69aa85" d="M 269.5,198.5 C 268.715,203.752 268.215,209.085 268,214.5C 267.097,215.701 265.931,216.535 264.5,217C 278.203,217.044 287.87,217.544 293.5,218.5C 271.025,216.689 249.692,220.689 229.5,230.5C 241.385,217.94 254.718,207.274 269.5,198.5 Z"/></g>
<g><path style="opacity:1" fill="#82b584" d="M 353.5,164.5 C 355.402,167.337 356.069,170.671 355.5,174.5C 353.5,174.5 351.5,174.5 349.5,174.5C 348.989,183.918 348.989,193.251 349.5,202.5C 348.5,202.5 347.5,202.5 346.5,202.5C 346.5,203.5 346.5,204.5 346.5,205.5C 345.178,205.33 344.011,205.663 343,206.5C 342.501,210.486 342.334,214.486 342.5,218.5C 340.833,218.5 339.167,218.5 337.5,218.5C 337.917,221.079 337.25,223.246 335.5,225C 337.116,225.615 338.449,226.615 339.5,228C 338.833,228.333 338.167,228.667 337.5,229C 340.711,230.153 344.044,230.82 347.5,231C 346.833,231.667 346.167,232.333 345.5,233C 347.544,233.498 348.878,234.665 349.5,236.5C 341.855,233.012 334.188,229.512 326.5,226C 318.383,223.806 310.383,221.64 302.5,219.5C 303.552,219.649 304.552,219.483 305.5,219C 301.774,217.957 302.107,217.457 306.5,217.5C 306.5,211.5 306.5,205.5 306.5,199.5C 308.792,199.756 310.959,199.423 313,198.5C 312.699,191.203 312.533,183.87 312.5,176.5C 325.489,170.507 339.156,166.507 353.5,164.5 Z"/></g>
<g><path style="opacity:1" fill="#b1c87d" d="M 468.5,169.5 C 472.982,170.99 477.316,172.657 481.5,174.5C 481.167,180.5 480.833,186.5 480.5,192.5C 478.856,192.286 477.356,192.62 476,193.5C 475.764,195.764 475.264,197.931 474.5,200C 474.35,203.42 474.684,206.92 475.5,210.5C 473.49,212.171 471.157,212.838 468.5,212.5C 468.202,223.197 467.535,233.864 466.5,244.5C 467.547,246.056 468.214,247.723 468.5,249.5C 464.154,249.334 459.821,249.501 455.5,250C 455.642,253.621 455.642,257.455 455.5,261.5C 454.07,261.421 452.736,261.754 451.5,262.5C 450.901,265.923 449.568,268.923 447.5,271.5C 448.795,274.379 449.462,277.379 449.5,280.5C 447.5,280.5 445.5,280.5 443.5,280.5C 443.012,290.773 443.012,301.106 443.5,311.5C 441.473,311.338 439.473,311.505 437.5,312C 436.978,312.561 436.645,313.228 436.5,314C 436.383,319.414 436.716,324.914 437.5,330.5C 439.167,330.5 440.833,330.5 442.5,330.5C 441.227,336.899 443.56,338.899 449.5,336.5C 449.917,339.079 449.25,341.246 447.5,343C 448.167,343.667 448.833,344.333 449.5,345C 448.262,344.923 447.262,345.089 446.5,345.5C 447.193,346.518 447.859,347.518 448.5,348.5C 439.911,343.25 431.577,337.583 423.5,331.5C 424.326,323.101 424.66,314.434 424.5,305.5C 426.5,305.5 428.5,305.5 430.5,305.5C 430.334,299.491 430.501,293.491 431,287.5C 432.699,286.594 434.533,286.261 436.5,286.5C 436.303,280.455 436.637,274.455 437.5,268.5C 438.5,268.5 439.5,268.5 440.5,268.5C 440.135,265.254 441.135,262.588 443.5,260.5C 443.112,255.912 443.112,251.246 443.5,246.5C 444.833,246.5 446.167,246.5 447.5,246.5C 449.107,239.319 449.941,231.986 450,224.5C 451.122,222.58 451.956,220.58 452.5,218.5C 453.5,218.5 454.5,218.5 455.5,218.5C 455.89,215.161 456.39,211.827 457,208.5C 457.333,208.833 457.667,209.167 458,209.5C 459.487,208.747 459.654,207.914 458.5,207C 463.025,206.618 464.691,204.118 463.5,199.5C 462.167,199.5 460.833,199.5 459.5,199.5C 459.5,198.5 459.5,197.5 459.5,196.5C 460.5,196.5 461.5,196.5 462.5,196.5C 462.786,194.723 463.453,193.056 464.5,191.5C 464.333,190.833 464.167,190.167 464,189.5C 463.667,190.5 463.333,191.5 463,192.5C 462.333,188.5 462.333,184.5 463,180.5C 463.333,182.833 463.667,185.167 464,187.5C 464.944,186.737 465.444,185.737 465.5,184.5C 463.843,181.453 464.843,180.12 468.5,180.5C 469.418,176.878 469.418,173.212 468.5,169.5 Z"/></g>
<g><path style="opacity:0.997" fill="#d0cf73" d="M 549.5,212.5 C 556.157,217.825 562.49,223.491 568.5,229.5C 567.791,230.404 566.791,230.737 565.5,230.5C 565.5,231.5 565.5,232.5 565.5,233.5C 566.5,233.5 567.5,233.5 568.5,233.5C 568.299,237.35 566.466,238.35 563,236.5C 562.667,243.833 562.333,251.167 562,258.5C 561.333,259.833 560.667,259.833 560,258.5C 559.005,261.77 558.172,265.103 557.5,268.5C 556.738,267.372 556.071,266.205 555.5,265C 556.554,263.612 556.72,262.112 556,260.5C 554.701,261.09 553.868,262.09 553.5,263.5C 554.378,266.13 555.045,268.797 555.5,271.5C 554.167,271.5 552.833,271.5 551.5,271.5C 549.412,276.797 547.079,282.131 544.5,287.5C 543.669,294.476 543.169,301.476 543,308.5C 542.333,309.833 541.667,309.833 541,308.5C 540.626,310.867 539.459,312.7 537.5,314C 537.667,314.5 537.833,315 538,315.5C 538.667,314.167 539.333,314.167 540,315.5C 540.495,317.473 540.662,319.473 540.5,321.5C 539.5,321.5 538.5,321.5 537.5,321.5C 537.5,322.5 537.5,323.5 537.5,324.5C 535.833,324.5 534.167,324.5 532.5,324.5C 532.167,326.5 531.833,328.5 531.5,330.5C 532.5,330.5 533.5,330.5 534.5,330.5C 533.828,333.908 534.828,336.575 537.5,338.5C 536.96,339.748 536.293,340.915 535.5,342C 537.093,342.949 538.426,344.115 539.5,345.5C 533.287,343.898 526.954,343.232 520.5,343.5C 519.883,343.389 519.383,343.056 519,342.5C 518.5,330.171 518.333,317.838 518.5,305.5C 519.93,305.421 521.264,305.754 522.5,306.5C 523.221,308.686 523.887,310.853 524.5,313C 523.346,313.914 523.513,314.747 525,315.5C 525.166,307.498 524.999,299.331 524.5,291C 525.5,290.667 526.5,290.333 527.5,290C 528.833,289.333 528.833,288.667 527.5,288C 528.793,287.51 530.127,287.343 531.5,287.5C 530.633,282.241 530.966,276.907 532.5,271.5C 533.695,269.703 535.362,268.703 537.5,268.5C 537.5,263.167 537.5,257.833 537.5,252.5C 538.5,252.5 539.5,252.5 540.5,252.5C 540.351,251.448 540.517,250.448 541,249.5C 541.333,249.833 541.667,250.167 542,250.5C 543.699,248.612 544.199,246.612 543.5,244.5C 544.325,243.614 545.325,243.281 546.5,243.5C 546.5,240.5 546.5,237.5 546.5,234.5C 547.5,234.5 548.5,234.5 549.5,234.5C 550.615,227.178 550.615,219.845 549.5,212.5 Z"/></g>
<g><path style="opacity:1" fill="#f6f9f7" d="M 293.5,218.5 C 296.287,219.477 299.287,219.81 302.5,219.5C 310.383,221.64 318.383,223.806 326.5,226C 334.188,229.512 341.855,233.012 349.5,236.5C 357.329,241.248 364.996,246.248 372.5,251.5C 382.5,260.833 392.167,270.5 401.5,280.5C 401.631,281.239 401.464,281.906 401,282.5C 399.385,281.614 397.885,280.614 396.5,279.5C 387.696,271.371 378.029,264.371 367.5,258.5C 360.763,253.798 353.43,250.132 345.5,247.5C 334.913,242.01 323.579,238.343 311.5,236.5C 305.511,235.74 299.511,235.073 293.5,234.5C 274.085,233.023 255.418,235.689 237.5,242.5C 227.901,245.63 219.234,250.297 211.5,256.5C 208.214,258.451 205.214,260.785 202.5,263.5C 205.084,259.067 207.918,254.734 211,250.5C 217.033,243.637 223.199,236.97 229.5,230.5C 249.692,220.689 271.025,216.689 293.5,218.5 Z"/></g>
<g><path style="opacity:0.997" fill="#d7d071" d="M 568.5,229.5 C 573.54,233.539 577.873,238.206 581.5,243.5C 580.704,249.35 580.037,255.35 579.5,261.5C 577.25,261.181 575.25,261.681 573.5,263C 573.936,266.969 574.269,271.135 574.5,275.5C 573.5,275.5 572.5,275.5 571.5,275.5C 571.5,277.167 571.5,278.833 571.5,280.5C 570.5,280.5 569.5,280.5 568.5,280.5C 567.888,286.894 567.888,293.228 568.5,299.5C 566.143,299.337 563.81,299.503 561.5,300C 561.918,305.828 561.918,311.995 561.5,318.5C 559.669,317.948 558.003,317.948 556.5,318.5C 555.504,324.463 555.171,330.463 555.5,336.5C 553.5,336.5 551.5,336.5 549.5,336.5C 549.525,341.496 549.192,346.163 548.5,350.5C 545.272,349.057 542.272,347.39 539.5,345.5C 538.426,344.115 537.093,342.949 535.5,342C 536.293,340.915 536.96,339.748 537.5,338.5C 534.828,336.575 533.828,333.908 534.5,330.5C 533.5,330.5 532.5,330.5 531.5,330.5C 531.833,328.5 532.167,326.5 532.5,324.5C 534.167,324.5 535.833,324.5 537.5,324.5C 537.5,323.5 537.5,322.5 537.5,321.5C 538.5,321.5 539.5,321.5 540.5,321.5C 540.662,319.473 540.495,317.473 540,315.5C 539.333,314.167 538.667,314.167 538,315.5C 537.833,315 537.667,314.5 537.5,314C 539.459,312.7 540.626,310.867 541,308.5C 541.667,309.833 542.333,309.833 543,308.5C 543.169,301.476 543.669,294.476 544.5,287.5C 547.079,282.131 549.412,276.797 551.5,271.5C 552.833,271.5 554.167,271.5 555.5,271.5C 555.045,268.797 554.378,266.13 553.5,263.5C 553.868,262.09 554.701,261.09 556,260.5C 556.72,262.112 556.554,263.612 555.5,265C 556.071,266.205 556.738,267.372 557.5,268.5C 558.172,265.103 559.005,261.77 560,258.5C 560.667,259.833 561.333,259.833 562,258.5C 562.333,251.167 562.667,243.833 563,236.5C 566.466,238.35 568.299,237.35 568.5,233.5C 567.5,233.5 566.5,233.5 565.5,233.5C 565.5,232.5 565.5,231.5 565.5,230.5C 566.791,230.737 567.791,230.404 568.5,229.5 Z"/></g>
<g><path style="opacity:1" fill="#74b086" d="M 293.5,234.5 C 299.511,235.073 305.511,235.74 311.5,236.5C 307.673,237.061 303.673,237.228 299.5,237C 301.676,237.163 303.509,237.996 305,239.5C 305.718,238.549 306.551,238.383 307.5,239C 305.797,246.057 305.131,253.557 305.5,261.5C 307.619,261.468 308.952,262.468 309.5,264.5C 299.093,261.501 288.76,258.835 278.5,256.5C 279.239,256.631 279.906,256.464 280.5,256C 277.042,255.403 273.709,254.403 270.5,253C 270.957,252.586 271.291,252.086 271.5,251.5C 269.401,249.849 268.067,247.682 267.5,245C 268.322,242.566 268.656,240.066 268.5,237.5C 274.906,235.959 283.24,234.959 293.5,234.5 Z"/></g>
<g><path style="opacity:1" fill="#61a584" d="M 293.5,234.5 C 283.24,234.959 274.906,235.959 268.5,237.5C 268.656,240.066 268.322,242.566 267.5,245C 268.067,247.682 269.401,249.849 271.5,251.5C 271.291,252.086 270.957,252.586 270.5,253C 273.709,254.403 277.042,255.403 280.5,256C 279.906,256.464 279.239,256.631 278.5,256.5C 270.493,256.334 262.493,256.5 254.5,257C 250.91,257.311 247.577,258.144 244.5,259.5C 242.708,259.366 241.042,259.699 239.5,260.5C 239.265,259.903 238.765,259.57 238,259.5C 235.276,260.687 232.443,261.353 229.5,261.5C 229.656,258.934 229.322,256.434 228.5,254C 228.905,253.055 229.572,252.388 230.5,252C 227.144,251.785 223.811,251.785 220.5,252C 226.592,248.628 232.926,245.628 239.5,243C 238.906,242.536 238.239,242.369 237.5,242.5C 255.418,235.689 274.085,233.023 293.5,234.5 Z"/></g>
<g><path style="opacity:1" fill="#84b785" d="M 311.5,236.5 C 323.579,238.343 334.913,242.01 345.5,247.5C 342.572,247.852 339.738,248.518 337,249.5C 336.667,252.833 336.333,256.167 336,259.5C 335,258.167 334,258.167 333,259.5C 332.355,263.362 332.521,267.196 333.5,271C 333.156,272.365 332.489,273.532 331.5,274.5C 331.863,275.183 332.196,275.85 332.5,276.5C 324.637,272.736 316.97,268.736 309.5,264.5C 308.952,262.468 307.619,261.468 305.5,261.5C 305.131,253.557 305.797,246.057 307.5,239C 306.551,238.383 305.718,238.549 305,239.5C 303.509,237.996 301.676,237.163 299.5,237C 303.673,237.228 307.673,237.061 311.5,236.5 Z"/></g>
<g><path style="opacity:0.994" fill="#ddd16e" d="M 581.5,243.5 C 586.302,248.427 590.635,253.76 594.5,259.5C 593.513,264.305 593.179,269.305 593.5,274.5C 591.5,274.5 589.5,274.5 587.5,274.5C 587.041,278.439 587.041,282.273 587.5,286C 586.448,287.119 585.281,287.619 584,287.5C 583.887,289.974 582.887,291.974 581,293.5C 580.501,297.486 580.334,301.486 580.5,305.5C 578.533,305.261 576.699,305.594 575,306.5C 574.501,312.491 574.334,318.491 574.5,324.5C 572.5,324.5 570.5,324.5 568.5,324.5C 568.666,329.179 568.499,333.845 568,338.5C 567.308,339.025 566.808,339.692 566.5,340.5C 567.612,341.265 568.279,342.265 568.5,343.5C 564.95,341.712 561.283,340.545 557.5,340C 561.597,342.37 565.264,345.203 568.5,348.5C 566.745,348.324 564.912,348.324 563,348.5C 562.241,347.354 561.574,346.354 561,345.5C 558.964,345.954 557.13,346.787 555.5,348C 556.094,351.239 557.26,354.405 559,357.5C 561.764,358.025 562.598,359.358 561.5,361.5C 557.312,357.586 552.979,353.919 548.5,350.5C 549.192,346.163 549.525,341.496 549.5,336.5C 551.5,336.5 553.5,336.5 555.5,336.5C 555.171,330.463 555.504,324.463 556.5,318.5C 558.003,317.948 559.669,317.948 561.5,318.5C 561.918,311.995 561.918,305.828 561.5,300C 563.81,299.503 566.143,299.337 568.5,299.5C 567.888,293.228 567.888,286.894 568.5,280.5C 569.5,280.5 570.5,280.5 571.5,280.5C 571.5,278.833 571.5,277.167 571.5,275.5C 572.5,275.5 573.5,275.5 574.5,275.5C 574.269,271.135 573.936,266.969 573.5,263C 575.25,261.681 577.25,261.181 579.5,261.5C 580.037,255.35 580.704,249.35 581.5,243.5 Z"/></g>
<g><path style="opacity:1" fill="#4d9583" d="M 237.5,242.5 C 238.239,242.369 238.906,242.536 239.5,243C 232.926,245.628 226.592,248.628 220.5,252C 223.811,251.785 227.144,251.785 230.5,252C 229.572,252.388 228.905,253.055 228.5,254C 229.322,256.434 229.656,258.934 229.5,261.5C 232.443,261.353 235.276,260.687 238,259.5C 238.765,259.57 239.265,259.903 239.5,260.5C 230.987,263.09 222.987,266.757 215.5,271.5C 214.207,270.355 213.041,270.689 212,272.5C 210.47,271.08 208.637,270.08 206.5,269.5C 208.289,268.377 208.622,267.044 207.5,265.5C 206.391,266.59 205.391,266.59 204.5,265.5C 206.229,264.403 207.896,263.237 209.5,262C 209.043,261.586 208.709,261.086 208.5,260.5C 209.605,259.108 210.939,257.941 212.5,257C 212.272,256.601 211.938,256.435 211.5,256.5C 219.234,250.297 227.901,245.63 237.5,242.5 Z"/></g>
<g><path style="opacity:1" fill="#90bc84" d="M 345.5,247.5 C 353.43,250.132 360.763,253.798 367.5,258.5C 365.712,258.215 364.045,258.548 362.5,259.5C 364.669,260.909 366.335,262.742 367.5,265C 366.911,267.633 365.244,268.8 362.5,268.5C 362.163,277.411 361.496,286.244 360.5,295C 361.38,296.356 361.714,297.856 361.5,299.5C 352.097,291.422 342.43,283.756 332.5,276.5C 332.196,275.85 331.863,275.183 331.5,274.5C 332.489,273.532 333.156,272.365 333.5,271C 332.521,267.196 332.355,263.362 333,259.5C 334,258.167 335,258.167 336,259.5C 336.333,256.167 336.667,252.833 337,249.5C 339.738,248.518 342.572,247.852 345.5,247.5 Z"/></g>
<g><path style="opacity:1" fill="#fafbfb" d="M 278.5,256.5 C 288.76,258.835 299.093,261.501 309.5,264.5C 316.97,268.736 324.637,272.736 332.5,276.5C 342.43,283.756 352.097,291.422 361.5,299.5C 379.446,317.952 396.946,336.952 414,356.5C 424.436,367.774 435.602,378.108 447.5,387.5C 453.659,393.657 460.659,398.657 468.5,402.5C 475.623,407.108 483.29,410.774 491.5,413.5C 499.336,416.375 507.336,417.042 515.5,415.5C 532.725,411.927 541.058,401.26 540.5,383.5C 539.404,367.898 532.238,355.898 519,347.5C 518.516,345.807 519.016,344.473 520.5,343.5C 526.954,343.232 533.287,343.898 539.5,345.5C 542.272,347.39 545.272,349.057 548.5,350.5C 552.979,353.919 557.312,357.586 561.5,361.5C 566.259,368.352 569.926,375.685 572.5,383.5C 572.5,384.833 572.5,386.167 572.5,387.5C 572.674,394.535 572.341,401.535 571.5,408.5C 568.205,419.423 563.038,429.423 556,438.5C 543.665,450.669 531.498,463.002 519.5,475.5C 517.642,476.595 515.975,477.929 514.5,479.5C 538.891,480.791 561.557,475.291 582.5,463C 585.665,460.665 588.665,458.165 591.5,455.5C 593.143,455.52 594.476,454.853 595.5,453.5C 596.833,456.167 598.167,456.167 599.5,453.5C 602.189,454.189 603.856,455.856 604.5,458.5C 602.898,462.095 600.898,465.429 598.5,468.5C 592.364,475.468 585.698,481.968 578.5,488C 574.931,489.942 571.598,492.108 568.5,494.5C 562.11,497.35 555.777,500.35 549.5,503.5C 545.643,504.175 541.977,505.342 538.5,507C 534.534,507.828 530.534,508.328 526.5,508.5C 518.133,508.705 509.8,508.371 501.5,507.5C 495.691,506.977 490.024,505.81 484.5,504C 477.505,500.66 470.505,497.66 463.5,495C 475.574,502.704 488.574,508.204 502.5,511.5C 508.246,513.22 514.246,514.22 520.5,514.5C 527.989,515.656 535.655,515.822 543.5,515C 544.416,514.722 545.082,514.222 545.5,513.5C 556.596,512.134 566.929,508.8 576.5,503.5C 587.432,497.864 597.099,490.53 605.5,481.5C 612.764,472.644 618.764,462.978 623.5,452.5C 625.567,447.299 627.234,441.965 628.5,436.5C 629.254,432.322 630.587,428.322 632.5,424.5C 633.317,422.031 633.817,419.365 634,416.5C 634.333,417.833 634.667,419.167 635,420.5C 636.127,417.623 636.794,414.623 637,411.5C 637.499,416.489 637.666,421.489 637.5,426.5C 637.095,436.18 635.428,445.513 632.5,454.5C 628.142,464.219 623.475,473.886 618.5,483.5C 606.048,502.782 589.381,517.282 568.5,527C 553.485,533.503 537.818,536.003 521.5,534.5C 511.601,533.608 501.934,531.608 492.5,528.5C 484.474,524.977 476.474,521.143 468.5,517C 461.264,512.248 453.931,507.748 446.5,503.5C 441.786,499.454 436.786,495.788 431.5,492.5C 422.36,484.198 413.026,476.032 403.5,468C 397.604,463.259 391.604,458.759 385.5,454.5C 379.305,448.815 372.638,443.648 365.5,439C 355.702,432.768 345.369,427.601 334.5,423.5C 319.51,415.256 303.51,412.423 286.5,415C 276.184,419.782 273.351,427.282 278,437.5C 279.214,439.049 280.714,440.215 282.5,441C 299.713,440.534 316.713,442.034 333.5,445.5C 350.798,452.316 367.131,460.983 382.5,471.5C 394.235,481.06 405.568,491.227 416.5,502C 411.346,499.231 406.346,495.898 401.5,492C 396.102,488.302 390.435,485.136 384.5,482.5C 377.086,477.459 369.086,473.459 360.5,470.5C 353.471,467.266 346.138,464.599 338.5,462.5C 325.612,459.778 312.612,457.778 299.5,456.5C 273.168,453.093 252.668,440.426 238,418.5C 232.681,408.379 231.181,397.712 233.5,386.5C 234.737,385.035 235.737,383.368 236.5,381.5C 243.646,371.546 253.312,365.379 265.5,363C 273.792,361.816 282.125,361.316 290.5,361.5C 316.825,365.278 340.825,374.945 362.5,390.5C 362.297,392.39 362.963,393.89 364.5,395C 366.329,395.273 367.829,396.107 369,397.5C 370.049,396.483 371.216,396.316 372.5,397C 374.977,398.643 377.31,400.476 379.5,402.5C 379.833,402.333 380.167,402.167 380.5,402C 378.077,400.429 376.744,398.263 376.5,395.5C 374.833,395.5 373.167,395.5 371.5,395.5C 371.5,394.167 371.5,392.833 371.5,391.5C 369.784,391.371 368.117,391.038 366.5,390.5C 341.41,372.573 313.743,360.24 283.5,353.5C 271.893,351.73 260.227,351.23 248.5,352C 241.853,353.165 235.519,354.998 229.5,357.5C 223.834,358.997 219.167,361.997 215.5,366.5C 214.516,363.572 214.183,360.572 214.5,357.5C 219.18,341.148 229.513,329.814 245.5,323.5C 257.423,319.149 269.756,317.483 282.5,318.5C 289.413,320.53 296.413,322.03 303.5,323C 293.672,318.136 283.339,314.969 272.5,313.5C 262.852,312.508 253.186,312.342 243.5,313C 242.263,313.232 241.263,313.732 240.5,314.5C 229.544,316.141 220.544,321.141 213.5,329.5C 205.911,337.92 202.245,347.92 202.5,359.5C 203.333,372.165 206.333,384.165 211.5,395.5C 221.945,421.536 239.278,441.702 263.5,456C 262.072,456.579 260.738,456.412 259.5,455.5C 257.254,454.545 254.921,453.878 252.5,453.5C 229.014,441.849 210.847,424.516 198,401.5C 196.07,395.987 193.904,390.654 191.5,385.5C 191.167,384.167 190.833,382.833 190.5,381.5C 190.336,367.508 190.836,353.508 192,339.5C 194.642,325.553 200.476,313.22 209.5,302.5C 215.956,297.049 222.956,292.382 230.5,288.5C 235.285,286.238 240.285,284.572 245.5,283.5C 250.721,282.074 256.055,281.074 261.5,280.5C 265.167,280.5 268.833,280.5 272.5,280.5C 281.045,280.72 289.378,282.053 297.5,284.5C 322.536,292.019 344.203,305.185 362.5,324C 363.167,324.667 363.833,324.667 364.5,324C 347.677,305.165 328.01,290.165 305.5,279C 301.979,277.326 298.313,276.16 294.5,275.5C 288.327,272.327 281.661,270.66 274.5,270.5C 272.393,269.532 270.059,269.198 267.5,269.5C 259.125,269.26 250.792,269.593 242.5,270.5C 238.694,270.588 235.027,269.921 231.5,268.5C 233.341,267.77 235.175,267.103 237,266.5C 237.688,265.668 237.521,265.002 236.5,264.5C 233.151,265.83 232.818,265.33 235.5,263C 237.126,263.195 238.793,263.195 240.5,263C 240.167,262.667 239.833,262.333 239.5,262C 241.315,261.243 242.981,260.41 244.5,259.5C 247.577,258.144 250.91,257.311 254.5,257C 262.493,256.5 270.493,256.334 278.5,256.5 Z"/></g>
<g><path style="opacity:0.998" fill="#3e8684" d="M 211.5,256.5 C 211.938,256.435 212.272,256.601 212.5,257C 210.939,257.941 209.605,259.108 208.5,260.5C 208.709,261.086 209.043,261.586 209.5,262C 207.896,263.237 206.229,264.403 204.5,265.5C 205.391,266.59 206.391,266.59 207.5,265.5C 208.622,267.044 208.289,268.377 206.5,269.5C 208.637,270.08 210.47,271.08 212,272.5C 213.041,270.689 214.207,270.355 215.5,271.5C 205.227,277.773 196.561,285.773 189.5,295.5C 188.799,293.412 187.799,291.412 186.5,289.5C 190.833,280.156 196.167,271.489 202.5,263.5C 205.214,260.785 208.214,258.451 211.5,256.5 Z"/></g>
<g><path style="opacity:1" fill="#7abfd1" d="M 267.5,269.5 C 270.059,269.198 272.393,269.532 274.5,270.5C 274.414,271.496 274.748,272.329 275.5,273C 273.117,273.065 272.45,273.898 273.5,275.5C 272.687,276.814 271.687,277.981 270.5,279C 271.416,279.278 272.082,279.778 272.5,280.5C 268.833,280.5 265.167,280.5 261.5,280.5C 263.379,279.095 263.712,277.428 262.5,275.5C 263.025,274.808 263.692,274.308 264.5,274C 261.5,273.667 258.5,273.333 255.5,273C 259.894,272.697 264.227,272.03 268.5,271C 267.944,270.617 267.611,270.117 267.5,269.5 Z"/></g>
<g><path style="opacity:1" fill="#82d0d2" d="M 274.5,270.5 C 281.661,270.66 288.327,272.327 294.5,275.5C 292.67,277.476 292.003,279.643 292.5,282C 294.744,282.05 296.411,282.883 297.5,284.5C 289.378,282.053 281.045,280.72 272.5,280.5C 272.082,279.778 271.416,279.278 270.5,279C 271.687,277.981 272.687,276.814 273.5,275.5C 272.45,273.898 273.117,273.065 275.5,273C 274.748,272.329 274.414,271.496 274.5,270.5 Z"/></g>
<g><path style="opacity:1" fill="#e3d26b" d="M 594.5,259.5 C 600.961,268.307 606.628,277.64 611.5,287.5C 609.5,287.5 607.5,287.5 605.5,287.5C 605.5,291.5 605.5,295.5 605.5,299.5C 603.459,299.146 601.626,299.146 600,299.5C 599.502,302.817 599.335,306.15 599.5,309.5C 598.5,309.5 597.5,309.5 596.5,309.5C 596.5,312.5 596.5,315.5 596.5,318.5C 595.5,318.5 594.5,318.5 593.5,318.5C 593.5,320.5 593.5,322.5 593.5,324.5C 592.5,324.5 591.5,324.5 590.5,324.5C 590.5,326.5 590.5,328.5 590.5,330.5C 588.897,330.312 587.563,330.812 586.5,332C 587.476,338.076 587.81,344.242 587.5,350.5C 588.833,350.5 590.167,350.5 591.5,350.5C 591.169,352.322 590.502,353.989 589.5,355.5C 582.989,350.741 575.989,346.741 568.5,343.5C 568.279,342.265 567.612,341.265 566.5,340.5C 566.808,339.692 567.308,339.025 568,338.5C 568.499,333.845 568.666,329.179 568.5,324.5C 570.5,324.5 572.5,324.5 574.5,324.5C 574.334,318.491 574.501,312.491 575,306.5C 576.699,305.594 578.533,305.261 580.5,305.5C 580.334,301.486 580.501,297.486 581,293.5C 582.887,291.974 583.887,289.974 584,287.5C 585.281,287.619 586.448,287.119 587.5,286C 587.041,282.273 587.041,278.439 587.5,274.5C 589.5,274.5 591.5,274.5 593.5,274.5C 593.179,269.305 593.513,264.305 594.5,259.5 Z"/></g>
<g><path style="opacity:1" fill="#70abc5" d="M 267.5,269.5 C 267.611,270.117 267.944,270.617 268.5,271C 264.227,272.03 259.894,272.697 255.5,273C 258.5,273.333 261.5,273.667 264.5,274C 263.692,274.308 263.025,274.808 262.5,275.5C 263.712,277.428 263.379,279.095 261.5,280.5C 256.055,281.074 250.721,282.074 245.5,283.5C 242.628,282.675 239.628,281.841 236.5,281C 237.167,279.333 237.833,277.667 238.5,276C 236.867,275.52 235.534,274.687 234.5,273.5C 237.087,272.251 239.754,271.251 242.5,270.5C 250.792,269.593 259.125,269.26 267.5,269.5 Z"/></g>
<g><path style="opacity:1" fill="#6099b8" d="M 234.5,273.5 C 235.534,274.687 236.867,275.52 238.5,276C 237.833,277.667 237.167,279.333 236.5,281C 239.628,281.841 242.628,282.675 245.5,283.5C 240.285,284.572 235.285,286.238 230.5,288.5C 228.178,288.823 225.678,288.823 223,288.5C 222.617,290.037 221.784,291.37 220.5,292.5C 219.015,288.748 219.681,285.415 222.5,282.5C 221.738,282.089 220.738,281.923 219.5,282C 223.559,279.879 226.892,277.713 229.5,275.5C 230.78,274.069 232.447,273.402 234.5,273.5 Z"/></g>
<g><path style="opacity:1" fill="#90ddd1" d="M 294.5,275.5 C 298.313,276.16 301.979,277.326 305.5,279C 328.01,290.165 347.677,305.165 364.5,324C 363.833,324.667 363.167,324.667 362.5,324C 344.203,305.185 322.536,292.019 297.5,284.5C 296.411,282.883 294.744,282.05 292.5,282C 292.003,279.643 292.67,277.476 294.5,275.5 Z"/></g>
<g><path style="opacity:1" fill="#4a84a6" d="M 229.5,275.5 C 226.892,277.713 223.559,279.879 219.5,282C 220.738,281.923 221.738,282.089 222.5,282.5C 219.681,285.415 219.015,288.748 220.5,292.5C 221.784,291.37 222.617,290.037 223,288.5C 225.678,288.823 228.178,288.823 230.5,288.5C 222.956,292.382 215.956,297.049 209.5,302.5C 208.078,302.25 207.078,301.417 206.5,300C 206.658,298.023 206.825,295.857 207,293.5C 206.167,295.5 205.333,297.5 204.5,299.5C 202.355,298.318 202.355,296.818 204.5,295C 204.167,294.667 203.833,294.333 203.5,294C 205.041,292.629 206.375,291.129 207.5,289.5C 213.843,283.326 221.176,278.659 229.5,275.5 Z"/></g>
<g><path style="opacity:1" fill="#9fc282" d="M 367.5,258.5 C 378.029,264.371 387.696,271.371 396.5,279.5C 395.504,279.414 394.671,279.748 394,280.5C 393.333,287.5 393.333,294.5 394,301.5C 394.5,302.667 395.333,303.5 396.5,304C 395.244,304.417 394.577,305.25 394.5,306.5C 392.519,304.856 390.519,303.19 388.5,301.5C 387.479,302.002 387.312,302.668 388,303.5C 405.762,323.098 424.595,341.431 444.5,358.5C 442.549,358.773 441.049,358.107 440,356.5C 439.833,357 439.667,357.5 439.5,358C 443.195,360.074 444.195,363.074 442.5,367C 442.887,371.345 444.22,375.345 446.5,379C 443.677,380.841 443.844,382.341 447,383.5C 447.604,381.314 448.77,381.148 450.5,383C 448.859,384.129 447.859,385.629 447.5,387.5C 435.602,378.108 424.436,367.774 414,356.5C 396.946,336.952 379.446,317.952 361.5,299.5C 361.714,297.856 361.38,296.356 360.5,295C 361.496,286.244 362.163,277.411 362.5,268.5C 365.244,268.8 366.911,267.633 367.5,265C 366.335,262.742 364.669,260.909 362.5,259.5C 364.045,258.548 365.712,258.215 367.5,258.5 Z"/></g>
<g><path style="opacity:1" fill="#ead469" d="M 611.5,287.5 C 615.959,295.424 619.625,303.757 622.5,312.5C 621.167,312.5 619.833,312.5 618.5,312.5C 618.5,316.5 618.5,320.5 618.5,324.5C 616.5,324.5 614.5,324.5 612.5,324.5C 612.666,329.844 612.499,335.177 612,340.5C 611.389,336.248 609.222,335.248 605.5,337.5C 605.261,339.467 605.594,341.301 606.5,343C 606.15,349.866 605.15,356.533 603.5,363C 605.134,365.98 606.8,368.98 608.5,372C 607.244,372.417 606.577,373.25 606.5,374.5C 601.917,367.247 596.25,360.914 589.5,355.5C 590.502,353.989 591.169,352.322 591.5,350.5C 590.167,350.5 588.833,350.5 587.5,350.5C 587.81,344.242 587.476,338.076 586.5,332C 587.563,330.812 588.897,330.312 590.5,330.5C 590.5,328.5 590.5,326.5 590.5,324.5C 591.5,324.5 592.5,324.5 593.5,324.5C 593.5,322.5 593.5,320.5 593.5,318.5C 594.5,318.5 595.5,318.5 596.5,318.5C 596.5,315.5 596.5,312.5 596.5,309.5C 597.5,309.5 598.5,309.5 599.5,309.5C 599.335,306.15 599.502,302.817 600,299.5C 601.626,299.146 603.459,299.146 605.5,299.5C 605.5,295.5 605.5,291.5 605.5,287.5C 607.5,287.5 609.5,287.5 611.5,287.5 Z"/></g>
<g><path style="opacity:0.992" fill="#f0d867" d="M 622.5,312.5 C 633.003,338.008 638.67,364.675 639.5,392.5C 637.998,384.565 636.164,376.565 634,368.5C 631.971,365.971 630.138,363.304 628.5,360.5C 628.167,361.167 627.833,361.833 627.5,362.5C 629.333,368.5 631.167,374.5 633,380.5C 633.661,395.179 633.495,409.846 632.5,424.5C 630.587,428.322 629.254,432.322 628.5,436.5C 627.762,426.273 628.095,415.939 629.5,405.5C 626.513,405.578 625.847,404.411 627.5,402C 627.07,400.566 626.236,399.399 625,398.5C 624.506,396.866 624.34,395.199 624.5,393.5C 626.5,393.5 628.5,393.5 630.5,393.5C 630.305,389.453 630.638,385.453 631.5,381.5C 631,379.5 630.5,377.5 630,375.5C 629.667,378.167 629.333,380.833 629,383.5C 627.513,384.253 627.346,385.086 628.5,386C 627.207,386.49 625.873,386.657 624.5,386.5C 622.166,391.032 620.499,395.865 619.5,401C 619.911,402.144 620.244,403.311 620.5,404.5C 619.925,409.988 619.258,415.321 618.5,420.5C 619.085,412.159 618.085,404.159 615.5,396.5C 615.477,394.073 614.977,391.74 614,389.5C 611.647,384.404 609.147,379.404 606.5,374.5C 606.577,373.25 607.244,372.417 608.5,372C 606.8,368.98 605.134,365.98 603.5,363C 605.15,356.533 606.15,349.866 606.5,343C 605.594,341.301 605.261,339.467 605.5,337.5C 609.222,335.248 611.389,336.248 612,340.5C 612.499,335.177 612.666,329.844 612.5,324.5C 614.5,324.5 616.5,324.5 618.5,324.5C 618.5,320.5 618.5,316.5 618.5,312.5C 619.833,312.5 621.167,312.5 622.5,312.5 Z"/></g>
<g><path style="opacity:1" fill="#78b3c9" d="M 272.5,313.5 C 283.339,314.969 293.672,318.136 303.5,323C 296.413,322.03 289.413,320.53 282.5,318.5C 276.013,317.672 269.346,317.172 262.5,317C 265.776,315.308 269.109,314.141 272.5,313.5 Z"/></g>
<g><path style="opacity:1" fill="#5c91b3" d="M 272.5,313.5 C 269.109,314.141 265.776,315.308 262.5,317C 269.346,317.172 276.013,317.672 282.5,318.5C 269.756,317.483 257.423,319.149 245.5,323.5C 245.44,322.957 245.107,322.624 244.5,322.5C 241.833,323.833 239.167,325.167 236.5,326.5C 233.014,324.825 229.681,322.992 226.5,321C 231.777,318.018 237.444,316.018 243.5,315C 242.552,314.517 241.552,314.351 240.5,314.5C 241.263,313.732 242.263,313.232 243.5,313C 253.186,312.342 262.852,312.508 272.5,313.5 Z"/></g>
<g><path style="opacity:0.608" fill="#306a7f" d="M 186.5,289.5 C 187.799,291.412 188.799,293.412 189.5,295.5C 183.103,304.963 177.769,314.963 173.5,325.5C 172.778,325.918 172.278,326.584 172,327.5C 171.601,327.272 171.435,326.938 171.5,326.5C 175.148,313.541 180.148,301.208 186.5,289.5 Z"/></g>
<g><path style="opacity:1" fill="#447899" d="M 240.5,314.5 C 241.552,314.351 242.552,314.517 243.5,315C 237.444,316.018 231.777,318.018 226.5,321C 229.681,322.992 233.014,324.825 236.5,326.5C 239.167,325.167 241.833,323.833 244.5,322.5C 245.107,322.624 245.44,322.957 245.5,323.5C 229.513,329.814 219.18,341.148 214.5,357.5C 213.663,357.602 212.996,358.602 212.5,360.5C 211.914,360.291 211.414,359.957 211,359.5C 209.936,355.554 209.103,351.554 208.5,347.5C 210.483,345.004 211.817,342.17 212.5,339C 211.941,338.275 211.608,337.442 211.5,336.5C 212.173,334.149 212.84,331.816 213.5,329.5C 220.544,321.141 229.544,316.141 240.5,314.5 Z"/></g>
<g><path style="opacity:1" fill="#2a5e83" d="M 187.5,312.5 C 188.043,312.56 188.376,312.893 188.5,313.5C 186.555,317.614 185.388,321.947 185,326.5C 183.935,324.604 183.102,324.437 182.5,326C 184.603,329.824 184.937,333.824 183.5,338C 183.843,341.308 184.676,344.474 186,347.5C 186.224,356.87 186.891,366.204 188,375.5C 188.566,377.723 189.4,379.723 190.5,381.5C 190.833,382.833 191.167,384.167 191.5,385.5C 190.957,385.56 190.624,385.893 190.5,386.5C 191.64,388.078 192.14,389.744 192,391.5C 191.125,388.785 189.292,387.452 186.5,387.5C 186.421,388.93 186.754,390.264 187.5,391.5C 187.192,392.308 186.692,392.975 186,393.5C 185.727,391.671 184.893,390.171 183.5,389C 183.833,388.667 184.167,388.333 184.5,388C 182.434,386.411 180.768,384.578 179.5,382.5C 181.449,378.038 182.449,373.371 182.5,368.5C 181.5,368.5 180.5,368.5 179.5,368.5C 178.836,363.173 178.169,357.84 177.5,352.5C 177.428,348.854 178.095,345.354 179.5,342C 179.046,339.97 178.38,338.137 177.5,336.5C 179.864,328.068 183.198,320.068 187.5,312.5 Z"/></g>
<g><path style="opacity:1" fill="#cbcf75" d="M 537.5,203.5 C 541.896,206.025 545.896,209.025 549.5,212.5C 550.615,219.845 550.615,227.178 549.5,234.5C 548.5,234.5 547.5,234.5 546.5,234.5C 546.5,237.5 546.5,240.5 546.5,243.5C 545.325,243.281 544.325,243.614 543.5,244.5C 544.199,246.612 543.699,248.612 542,250.5C 541.667,250.167 541.333,249.833 541,249.5C 540.517,250.448 540.351,251.448 540.5,252.5C 539.5,252.5 538.5,252.5 537.5,252.5C 537.5,257.833 537.5,263.167 537.5,268.5C 535.362,268.703 533.695,269.703 532.5,271.5C 530.966,276.907 530.633,282.241 531.5,287.5C 530.127,287.343 528.793,287.51 527.5,288C 528.833,288.667 528.833,289.333 527.5,290C 526.5,290.333 525.5,290.667 524.5,291C 524.999,299.331 525.166,307.498 525,315.5C 523.513,314.747 523.346,313.914 524.5,313C 523.887,310.853 523.221,308.686 522.5,306.5C 521.264,305.754 519.93,305.421 518.5,305.5C 518.333,317.838 518.5,330.171 519,342.5C 519.383,343.056 519.883,343.389 520.5,343.5C 519.016,344.473 518.516,345.807 519,347.5C 532.238,355.898 539.404,367.898 540.5,383.5C 541.058,401.26 532.725,411.927 515.5,415.5C 512.992,413.763 509.992,412.93 506.5,413C 508.167,412.667 509.833,412.333 511.5,412C 510.5,411.667 509.5,411.333 508.5,411C 509.833,409.333 509.833,407.667 508.5,406C 509.793,405.51 511.127,405.343 512.5,405.5C 511.397,388.628 511.397,371.628 512.5,354.5C 510.667,351.71 509.667,352.043 509.5,355.5C 505.932,355.241 504.599,353.241 505.5,349.5C 503.5,349.5 501.5,349.5 499.5,349.5C 499.5,339.167 499.5,328.833 499.5,318.5C 501.5,318.5 503.5,318.5 505.5,318.5C 505.334,312.491 505.501,306.491 506,300.5C 508.041,299.577 510.208,299.244 512.5,299.5C 512.049,291.215 512.049,282.882 512.5,274.5C 514.167,274.5 515.833,274.5 517.5,274.5C 518.24,266.188 518.573,257.854 518.5,249.5C 520.5,249.5 522.5,249.5 524.5,249.5C 524.334,245.486 524.501,241.486 525,237.5C 526.699,236.594 528.533,236.261 530.5,236.5C 530.5,228.5 530.5,220.5 530.5,212.5C 532.792,212.756 534.959,212.423 537,211.5C 537.497,208.854 537.664,206.187 537.5,203.5 Z"/></g>
<g><path style="opacity:1" fill="#3a6e8d" d="M 207.5,289.5 C 206.375,291.129 205.041,292.629 203.5,294C 203.833,294.333 204.167,294.667 204.5,295C 202.355,296.818 202.355,298.318 204.5,299.5C 205.333,297.5 206.167,295.5 207,293.5C 206.825,295.857 206.658,298.023 206.5,300C 207.078,301.417 208.078,302.25 209.5,302.5C 200.476,313.22 194.642,325.553 192,339.5C 190.836,353.508 190.336,367.508 190.5,381.5C 189.4,379.723 188.566,377.723 188,375.5C 186.891,366.204 186.224,356.87 186,347.5C 184.676,344.474 183.843,341.308 183.5,338C 184.937,333.824 184.603,329.824 182.5,326C 183.102,324.437 183.935,324.604 185,326.5C 185.388,321.947 186.555,317.614 188.5,313.5C 188.376,312.893 188.043,312.56 187.5,312.5C 190.445,307.714 193.612,303.048 197,298.5C 200.098,294.893 203.598,291.893 207.5,289.5 Z"/></g>
<g><path style="opacity:1" fill="#f8f9f3" d="M 394.5,306.5 C 399.844,311.843 405.511,316.843 411.5,321.5C 415.183,325.18 419.183,328.514 423.5,331.5C 431.577,337.583 439.911,343.25 448.5,348.5C 450.794,350.653 453.46,352.32 456.5,353.5C 465.192,358.507 474.525,361.84 484.5,363.5C 490.176,363.334 495.843,363.501 501.5,364C 506.791,368.45 506.791,372.95 501.5,377.5C 496.683,379.408 491.683,379.908 486.5,379C 478.849,377.337 471.516,374.837 464.5,371.5C 457.856,367.2 451.189,362.867 444.5,358.5C 424.595,341.431 405.762,323.098 388,303.5C 387.312,302.668 387.479,302.002 388.5,301.5C 390.519,303.19 392.519,304.856 394.5,306.5 Z"/></g>
<g><path style="opacity:1" fill="#e8d46a" d="M 568.5,348.5 C 574.108,352.439 579.108,357.106 583.5,362.5C 582.504,362.414 581.671,362.748 581,363.5C 580.667,362.833 580.333,362.167 580,361.5C 578.294,362.308 577.461,363.641 577.5,365.5C 575.876,365.36 574.71,366.027 574,367.5C 573.811,371.17 572.977,374.67 571.5,378C 572.794,378.106 573.461,379.106 573.5,381C 573.472,382.07 573.139,382.903 572.5,383.5C 569.926,375.685 566.259,368.352 561.5,361.5C 562.598,359.358 561.764,358.025 559,357.5C 557.26,354.405 556.094,351.239 555.5,348C 557.13,346.787 558.964,345.954 561,345.5C 561.574,346.354 562.241,347.354 563,348.5C 564.912,348.324 566.745,348.324 568.5,348.5 Z"/></g>
<g><path style="opacity:1" fill="#447696" d="M 283.5,353.5 C 272.021,353.516 260.354,353.683 248.5,354C 254.196,354.17 259.862,354.67 265.5,355.5C 264.609,356.59 263.609,356.59 262.5,355.5C 260.083,357.494 260.083,359.327 262.5,361C 259.937,361.763 259.937,362.263 262.5,362.5C 268.581,361.091 274.748,360.424 281,360.5C 284.93,360.458 288.096,360.791 290.5,361.5C 282.125,361.316 273.792,361.816 265.5,363C 253.312,365.379 243.646,371.546 236.5,381.5C 235.336,378.422 233.836,378.088 232,380.5C 231.691,381.766 231.191,382.933 230.5,384C 231.337,385.011 231.67,386.178 231.5,387.5C 230.5,387.5 229.5,387.5 228.5,387.5C 228.5,386.167 228.5,384.833 228.5,383.5C 227.167,383.5 225.833,383.5 224.5,383.5C 224.169,375.804 224.503,368.138 225.5,360.5C 227.812,359.806 229.146,358.806 229.5,357.5C 235.519,354.998 241.853,353.165 248.5,352C 260.227,351.23 271.893,351.73 283.5,353.5 Z"/></g>
<g><path style="opacity:1" fill="#acc87e" d="M 444.5,358.5 C 451.189,362.867 457.856,367.2 464.5,371.5C 462.173,371.753 460.173,371.086 458.5,369.5C 458.167,369.833 457.833,370.167 457.5,370.5C 459.322,372.01 461.322,373.343 463.5,374.5C 462.511,375.468 461.844,376.635 461.5,378C 462.738,382.526 462.738,387.026 461.5,391.5C 465.777,391.751 467.111,393.751 465.5,397.5C 467.862,398.271 470.196,399.105 472.5,400C 470.934,400.608 469.6,401.442 468.5,402.5C 460.659,398.657 453.659,393.657 447.5,387.5C 447.859,385.629 448.859,384.129 450.5,383C 448.77,381.148 447.604,381.314 447,383.5C 443.844,382.341 443.677,380.841 446.5,379C 444.22,375.345 442.887,371.345 442.5,367C 444.195,363.074 443.195,360.074 439.5,358C 439.667,357.5 439.833,357 440,356.5C 441.049,358.107 442.549,358.773 444.5,358.5 Z"/></g>
<g><path style="opacity:1" fill="#5e90b1" d="M 283.5,353.5 C 313.743,360.24 341.41,372.573 366.5,390.5C 367.463,391.363 367.463,392.03 366.5,392.5C 365.378,391.37 364.044,390.703 362.5,390.5C 340.825,374.945 316.825,365.278 290.5,361.5C 288.096,360.791 284.93,360.458 281,360.5C 274.748,360.424 268.581,361.091 262.5,362.5C 259.937,362.263 259.937,361.763 262.5,361C 260.083,359.327 260.083,357.494 262.5,355.5C 263.609,356.59 264.609,356.59 265.5,355.5C 259.862,354.67 254.196,354.17 248.5,354C 260.354,353.683 272.021,353.516 283.5,353.5 Z"/></g>
<g><path style="opacity:1" fill="#1e4e73" d="M 173.5,325.5 C 168.589,343.558 167.256,361.891 169.5,380.5C 169.025,384.522 167.692,388.355 165.5,392C 165.944,393.762 166.444,393.595 167,391.5C 168.295,394.005 168.461,396.672 167.5,399.5C 166.167,399.5 164.833,399.5 163.5,399.5C 163.788,396.134 163.954,392.8 164,389.5C 162.172,394.476 160.672,399.476 159.5,404.5C 158.771,377.633 162.771,351.633 171.5,326.5C 171.435,326.938 171.601,327.272 172,327.5C 172.278,326.584 172.778,325.918 173.5,325.5 Z"/></g>
<g><path style="opacity:1" fill="#3a6d92" d="M 213.5,329.5 C 212.84,331.816 212.173,334.149 211.5,336.5C 211.608,337.442 211.941,338.275 212.5,339C 211.817,342.17 210.483,345.004 208.5,347.5C 209.103,351.554 209.936,355.554 211,359.5C 211.414,359.957 211.914,360.291 212.5,360.5C 212.996,358.602 213.663,357.602 214.5,357.5C 214.183,360.572 214.516,363.572 215.5,366.5C 219.167,361.997 223.834,358.997 229.5,357.5C 229.146,358.806 227.812,359.806 225.5,360.5C 224.503,368.138 224.169,375.804 224.5,383.5C 225.833,383.5 227.167,383.5 228.5,383.5C 228.5,384.833 228.5,386.167 228.5,387.5C 229.5,387.5 230.5,387.5 231.5,387.5C 231.67,386.178 231.337,385.011 230.5,384C 231.191,382.933 231.691,381.766 232,380.5C 233.836,378.088 235.336,378.422 236.5,381.5C 235.737,383.368 234.737,385.035 233.5,386.5C 232.732,387.263 232.232,388.263 232,389.5C 231.83,395.196 231.33,400.862 230.5,406.5C 228.865,405.67 227.198,405.503 225.5,406C 224.663,404.989 224.33,403.822 224.5,402.5C 222.362,402.297 220.695,401.297 219.5,399.5C 217.99,403.248 216.823,402.915 216,398.5C 215.667,399.5 215.333,400.5 215,401.5C 214.059,399.273 212.892,397.273 211.5,395.5C 206.333,384.165 203.333,372.165 202.5,359.5C 202.245,347.92 205.911,337.92 213.5,329.5 Z"/></g>
<g><path style="opacity:1" fill="#edf3f5" d="M 244.5,259.5 C 242.981,260.41 241.315,261.243 239.5,262C 239.833,262.333 240.167,262.667 240.5,263C 238.793,263.195 237.126,263.195 235.5,263C 232.818,265.33 233.151,265.83 236.5,264.5C 237.521,265.002 237.688,265.668 237,266.5C 235.175,267.103 233.341,267.77 231.5,268.5C 235.027,269.921 238.694,270.588 242.5,270.5C 239.754,271.251 237.087,272.251 234.5,273.5C 232.447,273.402 230.78,274.069 229.5,275.5C 221.176,278.659 213.843,283.326 207.5,289.5C 203.598,291.893 200.098,294.893 197,298.5C 193.612,303.048 190.445,307.714 187.5,312.5C 183.198,320.068 179.864,328.068 177.5,336.5C 171.967,356.039 172.301,375.373 178.5,394.5C 178.5,395.833 178.5,397.167 178.5,398.5C 178.719,399.675 178.386,400.675 177.5,401.5C 176.735,400.388 175.735,399.721 174.5,399.5C 172.226,393.342 170.559,387.008 169.5,380.5C 167.256,361.891 168.589,343.558 173.5,325.5C 177.769,314.963 183.103,304.963 189.5,295.5C 196.561,285.773 205.227,277.773 215.5,271.5C 222.987,266.757 230.987,263.09 239.5,260.5C 241.042,259.699 242.708,259.366 244.5,259.5 Z"/></g>
<g><path style="opacity:1" fill="#f6db63" d="M 583.5,362.5 C 587.38,365.92 590.546,369.92 593,374.5C 597.194,382.195 600.694,390.195 603.5,398.5C 605.627,408.251 605.96,417.918 604.5,427.5C 604.666,421.491 604.499,415.491 604,409.5C 603.667,412.833 603.333,416.167 603,419.5C 601.923,417.884 601.423,416.051 601.5,414C 602.393,408.848 602.56,403.681 602,398.5C 601.489,400.878 600.822,403.212 600,405.5C 599.349,403.765 599.515,402.098 600.5,400.5C 598.257,399.526 595.924,399.192 593.5,399.5C 593.5,398.5 593.5,397.5 593.5,396.5C 592.5,396.5 591.5,396.5 590.5,396.5C 590.5,397.5 590.5,398.5 590.5,399.5C 589.5,399.5 588.5,399.5 587.5,399.5C 587.662,401.527 587.495,403.527 587,405.5C 585.719,405.381 584.552,405.881 583.5,407C 583.616,408.268 583.949,409.602 584.5,411C 583.437,412.188 582.103,412.688 580.5,412.5C 580.413,415.739 581.08,418.739 582.5,421.5C 580.833,421.5 579.167,421.5 577.5,421.5C 577.442,424.664 576.776,427.664 575.5,430.5C 574.167,430.5 572.833,430.5 571.5,430.5C 571.5,432.5 571.5,434.5 571.5,436.5C 570.5,436.5 569.5,436.5 568.5,436.5C 569.833,442.5 567.5,444.833 561.5,443.5C 561.833,445.5 562.167,447.5 562.5,449.5C 557.069,448.094 554.735,450.094 555.5,455.5C 550.5,454.5 548.5,456.5 549.5,461.5C 547.801,461.34 546.134,461.506 544.5,462C 543.833,464 543.167,466 542.5,468C 540.167,468.667 537.833,468.667 535.5,468C 537.007,467.163 537.507,465.996 537,464.5C 535.743,466.746 533.91,468.079 531.5,468.5C 531.762,469.978 531.429,471.311 530.5,472.5C 529.914,472.291 529.414,471.957 529,471.5C 526.129,473.518 522.962,474.852 519.5,475.5C 531.498,463.002 543.665,450.669 556,438.5C 563.038,429.423 568.205,419.423 571.5,408.5C 573.055,404.797 573.722,400.797 573.5,396.5C 573.498,393.314 573.165,390.314 572.5,387.5C 572.5,386.167 572.5,384.833 572.5,383.5C 573.139,382.903 573.472,382.07 573.5,381C 573.461,379.106 572.794,378.106 571.5,378C 572.977,374.67 573.811,371.17 574,367.5C 574.71,366.027 575.876,365.36 577.5,365.5C 577.461,363.641 578.294,362.308 580,361.5C 580.333,362.167 580.667,362.833 581,363.5C 581.671,362.748 582.504,362.414 583.5,362.5 Z"/></g>
<g><path style="opacity:1" fill="#fbfbf4" d="M 568.5,343.5 C 575.989,346.741 582.989,350.741 589.5,355.5C 596.25,360.914 601.917,367.247 606.5,374.5C 609.147,379.404 611.647,384.404 614,389.5C 614.977,391.74 615.477,394.073 615.5,396.5C 616.948,406.773 617.614,417.107 617.5,427.5C 616.626,430.789 615.959,434.123 615.5,437.5C 614.113,439.877 613.279,442.543 613,445.5C 610.146,449.889 607.313,454.222 604.5,458.5C 603.856,455.856 602.189,454.189 599.5,453.5C 598.167,456.167 596.833,456.167 595.5,453.5C 594.476,454.853 593.143,455.52 591.5,455.5C 598.497,447.501 602.83,438.168 604.5,427.5C 605.96,417.918 605.627,408.251 603.5,398.5C 600.694,390.195 597.194,382.195 593,374.5C 590.546,369.92 587.38,365.92 583.5,362.5C 579.108,357.106 574.108,352.439 568.5,348.5C 565.264,345.203 561.597,342.37 557.5,340C 561.283,340.545 564.95,341.712 568.5,343.5 Z"/></g>
<g><path style="opacity:1" fill="#bbcb7a" d="M 464.5,371.5 C 471.516,374.837 478.849,377.337 486.5,379C 491.683,379.908 496.683,379.408 501.5,377.5C 501.539,378.583 501.873,379.583 502.5,380.5C 501.833,381.167 501.167,381.833 500.5,382.5C 503.131,384.005 502.797,384.671 499.5,384.5C 498.459,387.458 498.459,390.458 499.5,393.5C 498.5,393.5 497.5,393.5 496.5,393.5C 496.113,398.24 496.113,402.907 496.5,407.5C 496.176,409.569 495.342,409.902 494,408.5C 492.562,409.9 491.729,411.567 491.5,413.5C 483.29,410.774 475.623,407.108 468.5,402.5C 469.6,401.442 470.934,400.608 472.5,400C 470.196,399.105 467.862,398.271 465.5,397.5C 467.111,393.751 465.777,391.751 461.5,391.5C 462.738,387.026 462.738,382.526 461.5,378C 461.844,376.635 462.511,375.468 463.5,374.5C 461.322,373.343 459.322,372.01 457.5,370.5C 457.833,370.167 458.167,369.833 458.5,369.5C 460.173,371.086 462.173,371.753 464.5,371.5 Z"/></g>
<g><path style="opacity:1" fill="#d6e3eb" d="M 362.5,390.5 C 364.044,390.703 365.378,391.37 366.5,392.5C 367.463,392.03 367.463,391.363 366.5,390.5C 368.117,391.038 369.784,391.371 371.5,391.5C 371.5,392.833 371.5,394.167 371.5,395.5C 373.167,395.5 374.833,395.5 376.5,395.5C 376.744,398.263 378.077,400.429 380.5,402C 380.167,402.167 379.833,402.333 379.5,402.5C 377.31,400.476 374.977,398.643 372.5,397C 371.216,396.316 370.049,396.483 369,397.5C 367.829,396.107 366.329,395.273 364.5,395C 362.963,393.89 362.297,392.39 362.5,390.5 Z"/></g>
<g><path style="opacity:1" fill="#f5e9b0" d="M 572.5,387.5 C 573.165,390.314 573.498,393.314 573.5,396.5C 573.722,400.797 573.055,404.797 571.5,408.5C 572.341,401.535 572.674,394.535 572.5,387.5 Z"/></g>
<g><path style="opacity:1" fill="#fbf8e3" d="M 639.5,392.5 C 639.796,404.042 639.129,415.376 637.5,426.5C 637.666,421.489 637.499,416.489 637,411.5C 636.794,414.623 636.127,417.623 635,420.5C 634.667,419.167 634.333,417.833 634,416.5C 633.817,419.365 633.317,422.031 632.5,424.5C 633.495,409.846 633.661,395.179 633,380.5C 631.167,374.5 629.333,368.5 627.5,362.5C 627.833,361.833 628.167,361.167 628.5,360.5C 630.138,363.304 631.971,365.971 634,368.5C 636.164,376.565 637.998,384.565 639.5,392.5 Z"/></g>
<g><path style="opacity:1" fill="#1c4c78" d="M 169.5,380.5 C 170.559,387.008 172.226,393.342 174.5,399.5C 178.292,407.466 183.458,414.466 190,420.5C 185.428,413.694 181.594,406.36 178.5,398.5C 178.5,397.167 178.5,395.833 178.5,394.5C 179.222,394.918 179.722,395.584 180,396.5C 181.398,395.949 182.732,395.616 184,395.5C 187.068,398.439 186.902,400.939 183.5,403C 187.482,404.893 189.482,407.726 189.5,411.5C 190.251,410.624 190.751,409.624 191,408.5C 191.273,410.329 192.107,411.829 193.5,413C 191.503,414.153 191.17,415.653 192.5,417.5C 193.167,416.833 193.833,416.167 194.5,415.5C 194.833,416 195.167,416.5 195.5,417C 194.209,419.371 193.209,421.871 192.5,424.5C 191.305,426.297 189.638,427.297 187.5,427.5C 187.461,429.359 188.294,430.692 190,431.5C 190.5,438.492 190.666,445.492 190.5,452.5C 189.5,452.5 188.5,452.5 187.5,452.5C 187.666,458.509 187.499,464.509 187,470.5C 186.13,471.108 185.63,471.941 185.5,473C 188.062,477.509 187.395,481.676 183.5,485.5C 184.167,486.5 184.833,487.5 185.5,488.5C 184.833,489.5 184.167,490.5 183.5,491.5C 184.957,494.784 186.29,498.117 187.5,501.5C 187.167,502.167 186.833,502.833 186.5,503.5C 185.571,502.311 185.238,500.978 185.5,499.5C 184.5,499.5 183.5,499.5 182.5,499.5C 182.36,497.876 183.027,496.71 184.5,496C 183.069,495.535 181.903,494.701 181,493.5C 180.617,494.056 180.117,494.389 179.5,494.5C 166.866,465.953 160.2,435.953 159.5,404.5C 160.672,399.476 162.172,394.476 164,389.5C 163.954,392.8 163.788,396.134 163.5,399.5C 164.833,399.5 166.167,399.5 167.5,399.5C 168.461,396.672 168.295,394.005 167,391.5C 166.444,393.595 165.944,393.762 165.5,392C 167.692,388.355 169.025,384.522 169.5,380.5 Z"/></g>
<g><path style="opacity:1" fill="#f4dd63" d="M 628.5,436.5 C 627.234,441.965 625.567,447.299 623.5,452.5C 621.862,453.914 620.528,453.58 619.5,451.5C 618.749,452.376 618.249,453.376 618,454.5C 617.28,452.888 617.446,451.388 618.5,450C 617.451,449.508 616.451,449.674 615.5,450.5C 614.378,448.956 614.711,447.623 616.5,446.5C 615.585,445.672 614.919,444.672 614.5,443.5C 615.156,441.547 615.489,439.547 615.5,437.5C 615.959,434.123 616.626,430.789 617.5,427.5C 618.468,425.393 618.802,423.059 618.5,420.5C 619.258,415.321 619.925,409.988 620.5,404.5C 620.244,403.311 619.911,402.144 619.5,401C 620.499,395.865 622.166,391.032 624.5,386.5C 625.873,386.657 627.207,386.49 628.5,386C 627.346,385.086 627.513,384.253 629,383.5C 629.333,380.833 629.667,378.167 630,375.5C 630.5,377.5 631,379.5 631.5,381.5C 630.638,385.453 630.305,389.453 630.5,393.5C 628.5,393.5 626.5,393.5 624.5,393.5C 624.34,395.199 624.506,396.866 625,398.5C 626.236,399.399 627.07,400.566 627.5,402C 625.847,404.411 626.513,405.578 629.5,405.5C 628.095,415.939 627.762,426.273 628.5,436.5 Z"/></g>
<g><path style="opacity:1" fill="#cad8e3" d="M 178.5,398.5 C 181.594,406.36 185.428,413.694 190,420.5C 183.458,414.466 178.292,407.466 174.5,399.5C 175.735,399.721 176.735,400.388 177.5,401.5C 178.386,400.675 178.719,399.675 178.5,398.5 Z"/></g>
<g><path style="opacity:1" fill="#b6c5cd" d="M 387.5,409.5 C 387.897,408.475 388.563,408.308 389.5,409C 393.833,413.333 398.167,417.667 402.5,422C 401.833,422.667 401.167,422.667 400.5,422C 396.298,417.63 391.964,413.463 387.5,409.5 Z"/></g>
<g><path style="opacity:1" fill="#f6ecc3" d="M 615.5,396.5 C 618.085,404.159 619.085,412.159 618.5,420.5C 618.802,423.059 618.468,425.393 617.5,427.5C 617.614,417.107 616.948,406.773 615.5,396.5 Z"/></g>
<g><path style="opacity:1" fill="#23537e" d="M 177.5,336.5 C 178.38,338.137 179.046,339.97 179.5,342C 178.095,345.354 177.428,348.854 177.5,352.5C 178.169,357.84 178.836,363.173 179.5,368.5C 180.5,368.5 181.5,368.5 182.5,368.5C 182.449,373.371 181.449,378.038 179.5,382.5C 180.768,384.578 182.434,386.411 184.5,388C 184.167,388.333 183.833,388.667 183.5,389C 184.893,390.171 185.727,391.671 186,393.5C 186.692,392.975 187.192,392.308 187.5,391.5C 186.754,390.264 186.421,388.93 186.5,387.5C 189.292,387.452 191.125,388.785 192,391.5C 192.14,389.744 191.64,388.078 190.5,386.5C 190.624,385.893 190.957,385.56 191.5,385.5C 193.904,390.654 196.07,395.987 198,401.5C 210.847,424.516 229.014,441.849 252.5,453.5C 250.038,453.618 247.538,453.951 245,454.5C 243.927,452.453 242.761,450.453 241.5,448.5C 239.006,448.776 236.672,449.276 234.5,450C 233.524,456.076 233.19,462.242 233.5,468.5C 232.5,468.5 231.5,468.5 230.5,468.5C 230.5,472.5 230.5,476.5 230.5,480.5C 229.5,480.5 228.5,480.5 227.5,480.5C 227.5,483.833 227.5,487.167 227.5,490.5C 226.5,490.5 225.5,490.5 224.5,490.5C 224.5,493.5 224.5,496.5 224.5,499.5C 222.5,499.5 220.5,499.5 218.5,499.5C 218.5,514.167 218.5,528.833 218.5,543.5C 215.214,543.071 212.047,543.071 209,543.5C 208.583,542.244 207.75,541.577 206.5,541.5C 195.215,527.278 186.215,511.611 179.5,494.5C 180.117,494.389 180.617,494.056 181,493.5C 181.903,494.701 183.069,495.535 184.5,496C 183.027,496.71 182.36,497.876 182.5,499.5C 183.5,499.5 184.5,499.5 185.5,499.5C 185.238,500.978 185.571,502.311 186.5,503.5C 186.833,502.833 187.167,502.167 187.5,501.5C 186.29,498.117 184.957,494.784 183.5,491.5C 184.167,490.5 184.833,489.5 185.5,488.5C 184.833,487.5 184.167,486.5 183.5,485.5C 187.395,481.676 188.062,477.509 185.5,473C 185.63,471.941 186.13,471.108 187,470.5C 187.499,464.509 187.666,458.509 187.5,452.5C 188.5,452.5 189.5,452.5 190.5,452.5C 190.666,445.492 190.5,438.492 190,431.5C 188.294,430.692 187.461,429.359 187.5,427.5C 189.638,427.297 191.305,426.297 192.5,424.5C 193.209,421.871 194.209,419.371 195.5,417C 195.167,416.5 194.833,416 194.5,415.5C 193.833,416.167 193.167,416.833 192.5,417.5C 191.17,415.653 191.503,414.153 193.5,413C 192.107,411.829 191.273,410.329 191,408.5C 190.751,409.624 190.251,410.624 189.5,411.5C 189.482,407.726 187.482,404.893 183.5,403C 186.902,400.939 187.068,398.439 184,395.5C 182.732,395.616 181.398,395.949 180,396.5C 179.722,395.584 179.222,394.918 178.5,394.5C 172.301,375.373 171.967,356.039 177.5,336.5 Z"/></g>
<g><path style="opacity:1" fill="#2e5f86" d="M 334.5,423.5 C 332.143,423.663 329.81,423.497 327.5,423C 328.34,421.334 327.84,421.167 326,422.5C 323.809,419.77 320.976,418.603 317.5,419C 317.67,420.57 318.003,422.403 318.5,424.5C 320.342,424.277 322.175,423.943 324,423.5C 326.086,424.418 328.253,425.085 330.5,425.5C 331.288,431.064 329.955,435.897 326.5,440C 328.878,440.974 328.544,441.641 325.5,442C 327.447,442.991 329.447,443.325 331.5,443C 330.833,442.667 330.167,442.333 329.5,442C 332.502,434.356 334.168,434.689 334.5,443C 332.381,443.342 332.047,444.175 333.5,445.5C 316.713,442.034 299.713,440.534 282.5,441C 280.714,440.215 279.214,439.049 278,437.5C 273.351,427.282 276.184,419.782 286.5,415C 303.51,412.423 319.51,415.256 334.5,423.5 Z"/></g>
<g><path style="opacity:1" fill="#34668c" d="M 334.5,423.5 C 345.369,427.601 355.702,432.768 365.5,439C 372.638,443.648 379.305,448.815 385.5,454.5C 383.606,453.952 381.94,452.952 380.5,451.5C 379.709,452.066 379.709,452.899 380.5,454C 380.095,454.945 379.428,455.612 378.5,456C 383.682,459.817 384.349,464.15 380.5,469C 381.381,469.708 382.047,470.542 382.5,471.5C 367.131,460.983 350.798,452.316 333.5,445.5C 332.047,444.175 332.381,443.342 334.5,443C 334.168,434.689 332.502,434.356 329.5,442C 330.167,442.333 330.833,442.667 331.5,443C 329.447,443.325 327.447,442.991 325.5,442C 328.544,441.641 328.878,440.974 326.5,440C 329.955,435.897 331.288,431.064 330.5,425.5C 328.253,425.085 326.086,424.418 324,423.5C 322.175,423.943 320.342,424.277 318.5,424.5C 318.003,422.403 317.67,420.57 317.5,419C 320.976,418.603 323.809,419.77 326,422.5C 327.84,421.167 328.34,421.334 327.5,423C 329.81,423.497 332.143,423.663 334.5,423.5 Z"/></g>
<g><path style="opacity:1" fill="#fade5e" d="M 604.5,427.5 C 602.83,438.168 598.497,447.501 591.5,455.5C 588.665,458.165 585.665,460.665 582.5,463C 561.557,475.291 538.891,480.791 514.5,479.5C 515.975,477.929 517.642,476.595 519.5,475.5C 522.962,474.852 526.129,473.518 529,471.5C 529.414,471.957 529.914,472.291 530.5,472.5C 531.429,471.311 531.762,469.978 531.5,468.5C 533.91,468.079 535.743,466.746 537,464.5C 537.507,465.996 537.007,467.163 535.5,468C 537.833,468.667 540.167,468.667 542.5,468C 543.167,466 543.833,464 544.5,462C 546.134,461.506 547.801,461.34 549.5,461.5C 548.5,456.5 550.5,454.5 555.5,455.5C 554.735,450.094 557.069,448.094 562.5,449.5C 562.167,447.5 561.833,445.5 561.5,443.5C 567.5,444.833 569.833,442.5 568.5,436.5C 569.5,436.5 570.5,436.5 571.5,436.5C 571.5,434.5 571.5,432.5 571.5,430.5C 572.833,430.5 574.167,430.5 575.5,430.5C 576.776,427.664 577.442,424.664 577.5,421.5C 579.167,421.5 580.833,421.5 582.5,421.5C 581.08,418.739 580.413,415.739 580.5,412.5C 582.103,412.688 583.437,412.188 584.5,411C 583.949,409.602 583.616,408.268 583.5,407C 584.552,405.881 585.719,405.381 587,405.5C 587.495,403.527 587.662,401.527 587.5,399.5C 588.5,399.5 589.5,399.5 590.5,399.5C 590.5,398.5 590.5,397.5 590.5,396.5C 591.5,396.5 592.5,396.5 593.5,396.5C 593.5,397.5 593.5,398.5 593.5,399.5C 595.924,399.192 598.257,399.526 600.5,400.5C 599.515,402.098 599.349,403.765 600,405.5C 600.822,403.212 601.489,400.878 602,398.5C 602.56,403.681 602.393,408.848 601.5,414C 601.423,416.051 601.923,417.884 603,419.5C 603.333,416.167 603.667,412.833 604,409.5C 604.499,415.491 604.666,421.491 604.5,427.5 Z"/></g>
<g><path style="opacity:1" fill="#2b5f86" d="M 233.5,386.5 C 231.181,397.712 232.681,408.379 238,418.5C 252.668,440.426 273.168,453.093 299.5,456.5C 295.357,458.644 291.191,458.644 287,456.5C 286.56,458.076 285.727,459.41 284.5,460.5C 285.325,461.386 286.325,461.719 287.5,461.5C 287.5,465.833 287.5,470.167 287.5,474.5C 286.5,474.5 285.5,474.5 284.5,474.5C 284.665,477.518 284.498,480.518 284,483.5C 282.933,484.191 281.766,484.691 280.5,485C 281.46,488.73 281.793,492.563 281.5,496.5C 280.167,496.5 278.833,496.5 277.5,496.5C 277.5,499.833 277.5,503.167 277.5,506.5C 276.5,506.5 275.5,506.5 274.5,506.5C 274.5,509.5 274.5,512.5 274.5,515.5C 273.5,515.5 272.5,515.5 271.5,515.5C 271.5,518.5 271.5,521.5 271.5,524.5C 270.5,524.5 269.5,524.5 268.5,524.5C 268.5,527.833 268.5,531.167 268.5,534.5C 267.5,534.5 266.5,534.5 265.5,534.5C 265.5,540.5 265.5,546.5 265.5,552.5C 264.5,552.5 263.5,552.5 262.5,552.5C 262.5,555.833 262.5,559.167 262.5,562.5C 261.5,562.5 260.5,562.5 259.5,562.5C 259.5,567.5 259.5,572.5 259.5,577.5C 258.5,577.5 257.5,577.5 256.5,577.5C 256.662,579.527 256.495,581.527 256,583.5C 254.491,584.09 252.991,584.756 251.5,585.5C 252.689,586.429 254.022,586.762 255.5,586.5C 255.649,587.552 255.483,588.552 255,589.5C 254.329,588.748 253.496,588.414 252.5,588.5C 242.028,581.572 232.694,573.239 224.5,563.5C 227.422,564.901 230.255,566.568 233,568.5C 233.5,568 234,567.5 234.5,567C 233.594,565.301 233.261,563.467 233.5,561.5C 232.5,561.5 231.5,561.5 230.5,561.5C 230.5,553.5 230.5,545.5 230.5,537.5C 231.5,537.5 232.5,537.5 233.5,537.5C 233.5,532.167 233.5,526.833 233.5,521.5C 234.822,521.67 235.989,521.337 237,520.5C 237.129,517.997 238.129,515.997 240,514.5C 240.498,511.518 240.665,508.518 240.5,505.5C 241.5,505.5 242.5,505.5 243.5,505.5C 243.5,499.5 243.5,493.5 243.5,487.5C 244.5,487.5 245.5,487.5 246.5,487.5C 246.5,485.167 246.5,482.833 246.5,480.5C 247.5,480.5 248.5,480.5 249.5,480.5C 249.5,476.5 249.5,472.5 249.5,468.5C 250.5,468.5 251.5,468.5 252.5,468.5C 252.5,467.5 252.5,466.5 252.5,465.5C 253.5,465.5 254.5,465.5 255.5,465.5C 255.5,466.5 255.5,467.5 255.5,468.5C 256.5,468.5 257.5,468.5 258.5,468.5C 258.5,467.5 258.5,466.5 258.5,465.5C 260.346,465.778 261.68,465.111 262.5,463.5C 261.019,462.52 259.685,461.353 258.5,460C 258.833,459.667 259.167,459.333 259.5,459C 257.381,458.902 255.714,458.069 254.5,456.5C 255.631,455.396 256.465,455.729 257,457.5C 257.995,456.934 258.828,456.267 259.5,455.5C 260.738,456.412 262.072,456.579 263.5,456C 239.278,441.702 221.945,421.536 211.5,395.5C 212.892,397.273 214.059,399.273 215,401.5C 215.333,400.5 215.667,399.5 216,398.5C 216.823,402.915 217.99,403.248 219.5,399.5C 220.695,401.297 222.362,402.297 224.5,402.5C 224.33,403.822 224.663,404.989 225.5,406C 227.198,405.503 228.865,405.67 230.5,406.5C 231.33,400.862 231.83,395.196 232,389.5C 232.232,388.263 232.732,387.263 233.5,386.5 Z"/></g>
<g><path style="opacity:1" fill="#285a83" d="M 252.5,453.5 C 254.921,453.878 257.254,454.545 259.5,455.5C 258.828,456.267 257.995,456.934 257,457.5C 256.465,455.729 255.631,455.396 254.5,456.5C 255.714,458.069 257.381,458.902 259.5,459C 259.167,459.333 258.833,459.667 258.5,460C 259.685,461.353 261.019,462.52 262.5,463.5C 261.68,465.111 260.346,465.778 258.5,465.5C 258.5,466.5 258.5,467.5 258.5,468.5C 257.5,468.5 256.5,468.5 255.5,468.5C 255.5,467.5 255.5,466.5 255.5,465.5C 254.5,465.5 253.5,465.5 252.5,465.5C 252.5,466.5 252.5,467.5 252.5,468.5C 251.5,468.5 250.5,468.5 249.5,468.5C 249.5,472.5 249.5,476.5 249.5,480.5C 248.5,480.5 247.5,480.5 246.5,480.5C 246.5,482.833 246.5,485.167 246.5,487.5C 245.5,487.5 244.5,487.5 243.5,487.5C 243.5,493.5 243.5,499.5 243.5,505.5C 242.5,505.5 241.5,505.5 240.5,505.5C 240.665,508.518 240.498,511.518 240,514.5C 238.129,515.997 237.129,517.997 237,520.5C 235.989,521.337 234.822,521.67 233.5,521.5C 233.5,526.833 233.5,532.167 233.5,537.5C 232.5,537.5 231.5,537.5 230.5,537.5C 230.5,545.5 230.5,553.5 230.5,561.5C 231.5,561.5 232.5,561.5 233.5,561.5C 233.261,563.467 233.594,565.301 234.5,567C 234,567.5 233.5,568 233,568.5C 230.255,566.568 227.422,564.901 224.5,563.5C 218.032,556.574 212.032,549.24 206.5,541.5C 207.75,541.577 208.583,542.244 209,543.5C 212.047,543.071 215.214,543.071 218.5,543.5C 218.5,528.833 218.5,514.167 218.5,499.5C 220.5,499.5 222.5,499.5 224.5,499.5C 224.5,496.5 224.5,493.5 224.5,490.5C 225.5,490.5 226.5,490.5 227.5,490.5C 227.5,487.167 227.5,483.833 227.5,480.5C 228.5,480.5 229.5,480.5 230.5,480.5C 230.5,476.5 230.5,472.5 230.5,468.5C 231.5,468.5 232.5,468.5 233.5,468.5C 233.19,462.242 233.524,456.076 234.5,450C 236.672,449.276 239.006,448.776 241.5,448.5C 242.761,450.453 243.927,452.453 245,454.5C 247.538,453.951 250.038,453.618 252.5,453.5 Z"/></g>
<g><path style="opacity:1" fill="#32668d" d="M 299.5,456.5 C 312.612,457.778 325.612,459.778 338.5,462.5C 338.083,463.124 337.416,463.457 336.5,463.5C 332.552,462.274 328.552,461.774 324.5,462C 325.5,462.333 326.5,462.667 327.5,463C 325.833,463.333 324.167,463.667 322.5,464C 324.399,468.178 325.065,472.678 324.5,477.5C 323.5,477.5 322.5,477.5 321.5,477.5C 321.5,483.833 321.5,490.167 321.5,496.5C 320.5,496.5 319.5,496.5 318.5,496.5C 318.5,498.5 318.5,500.5 318.5,502.5C 317.5,502.5 316.5,502.5 315.5,502.5C 313.934,509.215 312.767,516.215 312,523.5C 310.561,525.014 309.061,525.347 307.5,524.5C 306.03,529.73 305.363,535.063 305.5,540.5C 304.5,540.5 303.5,540.5 302.5,540.5C 302.5,542.5 302.5,544.5 302.5,546.5C 301.5,546.5 300.5,546.5 299.5,546.5C 299.5,550.5 299.5,554.5 299.5,558.5C 298.5,558.5 297.5,558.5 296.5,558.5C 296.5,562.833 296.5,567.167 296.5,571.5C 295.5,571.5 294.5,571.5 293.5,571.5C 293.5,574.5 293.5,577.5 293.5,580.5C 292.5,580.5 291.5,580.5 290.5,580.5C 290.5,584.833 290.5,589.167 290.5,593.5C 289.5,593.5 288.5,593.5 287.5,593.5C 287.5,596.5 287.5,599.5 287.5,602.5C 285.167,602.5 282.833,602.5 280.5,602.5C 280.473,604.199 279.806,605.533 278.5,606.5C 269.099,601.474 260.432,595.474 252.5,588.5C 253.496,588.414 254.329,588.748 255,589.5C 255.483,588.552 255.649,587.552 255.5,586.5C 254.022,586.762 252.689,586.429 251.5,585.5C 252.991,584.756 254.491,584.09 256,583.5C 256.495,581.527 256.662,579.527 256.5,577.5C 257.5,577.5 258.5,577.5 259.5,577.5C 259.5,572.5 259.5,567.5 259.5,562.5C 260.5,562.5 261.5,562.5 262.5,562.5C 262.5,559.167 262.5,555.833 262.5,552.5C 263.5,552.5 264.5,552.5 265.5,552.5C 265.5,546.5 265.5,540.5 265.5,534.5C 266.5,534.5 267.5,534.5 268.5,534.5C 268.5,531.167 268.5,527.833 268.5,524.5C 269.5,524.5 270.5,524.5 271.5,524.5C 271.5,521.5 271.5,518.5 271.5,515.5C 272.5,515.5 273.5,515.5 274.5,515.5C 274.5,512.5 274.5,509.5 274.5,506.5C 275.5,506.5 276.5,506.5 277.5,506.5C 277.5,503.167 277.5,499.833 277.5,496.5C 278.833,496.5 280.167,496.5 281.5,496.5C 281.793,492.563 281.46,488.73 280.5,485C 281.766,484.691 282.933,484.191 284,483.5C 284.498,480.518 284.665,477.518 284.5,474.5C 285.5,474.5 286.5,474.5 287.5,474.5C 287.5,470.167 287.5,465.833 287.5,461.5C 286.325,461.719 285.325,461.386 284.5,460.5C 285.727,459.41 286.56,458.076 287,456.5C 291.191,458.644 295.357,458.644 299.5,456.5 Z"/></g>
<g><path style="opacity:1" fill="#ebd869" d="M 615.5,437.5 C 615.489,439.547 615.156,441.547 614.5,443.5C 614.919,444.672 615.585,445.672 616.5,446.5C 614.711,447.623 614.378,448.956 615.5,450.5C 616.451,449.674 617.451,449.508 618.5,450C 617.446,451.388 617.28,452.888 618,454.5C 618.249,453.376 618.749,452.376 619.5,451.5C 620.528,453.58 621.862,453.914 623.5,452.5C 618.764,462.978 612.764,472.644 605.5,481.5C 604.061,480.491 602.728,480.824 601.5,482.5C 599.827,480.914 597.827,480.247 595.5,480.5C 595.34,478.801 595.506,477.134 596,475.5C 598.761,473.713 599.594,471.379 598.5,468.5C 600.898,465.429 602.898,462.095 604.5,458.5C 607.313,454.222 610.146,449.889 613,445.5C 613.279,442.543 614.113,439.877 615.5,437.5 Z"/></g>
<g><path style="opacity:0.999" fill="#396d93" d="M 338.5,462.5 C 346.138,464.599 353.471,467.266 360.5,470.5C 359.07,470.579 357.736,470.246 356.5,469.5C 356.891,470.718 356.224,471.552 354.5,472C 355.46,475.73 355.793,479.563 355.5,483.5C 354.5,483.5 353.5,483.5 352.5,483.5C 352.5,488.833 352.5,494.167 352.5,499.5C 351.5,499.5 350.5,499.5 349.5,499.5C 349.5,502.5 349.5,505.5 349.5,508.5C 348.5,508.5 347.5,508.5 346.5,508.5C 346.5,512.833 346.5,517.167 346.5,521.5C 345.5,521.5 344.5,521.5 343.5,521.5C 343.5,524.5 343.5,527.5 343.5,530.5C 342.5,530.5 341.5,530.5 340.5,530.5C 341.285,534.64 340.119,537.973 337,540.5C 336.502,543.482 336.335,546.482 336.5,549.5C 334.5,549.5 332.5,549.5 330.5,549.5C 330.666,556.508 330.5,563.508 330,570.5C 328.477,572.569 327.643,574.903 327.5,577.5C 326.5,577.5 325.5,577.5 324.5,577.5C 324.519,579.06 324.852,580.56 325.5,582C 324.728,589.129 323.394,595.962 321.5,602.5C 320.5,602.5 319.5,602.5 318.5,602.5C 318.5,605.5 318.5,608.5 318.5,611.5C 317.178,611.33 316.011,611.663 315,612.5C 314.503,614.81 314.337,617.143 314.5,619.5C 312.381,619.468 311.048,620.468 310.5,622.5C 299.241,618.204 288.575,612.871 278.5,606.5C 279.806,605.533 280.473,604.199 280.5,602.5C 282.833,602.5 285.167,602.5 287.5,602.5C 287.5,599.5 287.5,596.5 287.5,593.5C 288.5,593.5 289.5,593.5 290.5,593.5C 290.5,589.167 290.5,584.833 290.5,580.5C 291.5,580.5 292.5,580.5 293.5,580.5C 293.5,577.5 293.5,574.5 293.5,571.5C 294.5,571.5 295.5,571.5 296.5,571.5C 296.5,567.167 296.5,562.833 296.5,558.5C 297.5,558.5 298.5,558.5 299.5,558.5C 299.5,554.5 299.5,550.5 299.5,546.5C 300.5,546.5 301.5,546.5 302.5,546.5C 302.5,544.5 302.5,542.5 302.5,540.5C 303.5,540.5 304.5,540.5 305.5,540.5C 305.363,535.063 306.03,529.73 307.5,524.5C 309.061,525.347 310.561,525.014 312,523.5C 312.767,516.215 313.934,509.215 315.5,502.5C 316.5,502.5 317.5,502.5 318.5,502.5C 318.5,500.5 318.5,498.5 318.5,496.5C 319.5,496.5 320.5,496.5 321.5,496.5C 321.5,490.167 321.5,483.833 321.5,477.5C 322.5,477.5 323.5,477.5 324.5,477.5C 325.065,472.678 324.399,468.178 322.5,464C 324.167,463.667 325.833,463.333 327.5,463C 326.5,462.667 325.5,462.333 324.5,462C 328.552,461.774 332.552,462.274 336.5,463.5C 337.416,463.457 338.083,463.124 338.5,462.5 Z"/></g>
<g><path style="opacity:0.998" fill="#3f7398" d="M 360.5,470.5 C 369.086,473.459 377.086,477.459 384.5,482.5C 383.417,482.461 382.417,482.127 381.5,481.5C 380.509,485.445 380.176,489.445 380.5,493.5C 378.5,493.5 376.5,493.5 374.5,493.5C 374.5,498.5 374.5,503.5 374.5,508.5C 373.5,508.5 372.5,508.5 371.5,508.5C 371.5,512.833 371.5,517.167 371.5,521.5C 370.5,521.5 369.5,521.5 368.5,521.5C 368.666,526.511 368.499,531.511 368,536.5C 365.897,538.303 365.064,540.636 365.5,543.5C 364.5,543.5 363.5,543.5 362.5,543.5C 362.5,546.5 362.5,549.5 362.5,552.5C 361.167,552.5 359.833,552.5 358.5,552.5C 358.5,555.833 358.5,559.167 358.5,562.5C 357.5,562.5 356.5,562.5 355.5,562.5C 355.5,567.5 355.5,572.5 355.5,577.5C 354.5,577.5 353.5,577.5 352.5,577.5C 354.218,587.077 354.218,590.41 352.5,587.5C 351.167,587.5 349.833,587.5 348.5,587.5C 346.865,592.321 346.198,597.321 346.5,602.5C 345.5,602.5 344.5,602.5 343.5,602.5C 343.666,606.514 343.499,610.514 343,614.5C 342.586,614.957 342.086,615.291 341.5,615.5C 341.012,621.138 339.679,626.471 337.5,631.5C 328.442,628.703 319.442,625.703 310.5,622.5C 311.048,620.468 312.381,619.468 314.5,619.5C 314.337,617.143 314.503,614.81 315,612.5C 316.011,611.663 317.178,611.33 318.5,611.5C 318.5,608.5 318.5,605.5 318.5,602.5C 319.5,602.5 320.5,602.5 321.5,602.5C 323.394,595.962 324.728,589.129 325.5,582C 324.852,580.56 324.519,579.06 324.5,577.5C 325.5,577.5 326.5,577.5 327.5,577.5C 327.643,574.903 328.477,572.569 330,570.5C 330.5,563.508 330.666,556.508 330.5,549.5C 332.5,549.5 334.5,549.5 336.5,549.5C 336.335,546.482 336.502,543.482 337,540.5C 340.119,537.973 341.285,534.64 340.5,530.5C 341.5,530.5 342.5,530.5 343.5,530.5C 343.5,527.5 343.5,524.5 343.5,521.5C 344.5,521.5 345.5,521.5 346.5,521.5C 346.5,517.167 346.5,512.833 346.5,508.5C 347.5,508.5 348.5,508.5 349.5,508.5C 349.5,505.5 349.5,502.5 349.5,499.5C 350.5,499.5 351.5,499.5 352.5,499.5C 352.5,494.167 352.5,488.833 352.5,483.5C 353.5,483.5 354.5,483.5 355.5,483.5C 355.793,479.563 355.46,475.73 354.5,472C 356.224,471.552 356.891,470.718 356.5,469.5C 357.736,470.246 359.07,470.579 360.5,470.5 Z"/></g>
<g><path style="opacity:1" fill="#e2d46e" d="M 598.5,468.5 C 599.594,471.379 598.761,473.713 596,475.5C 595.506,477.134 595.34,478.801 595.5,480.5C 597.827,480.247 599.827,480.914 601.5,482.5C 602.728,480.824 604.061,480.491 605.5,481.5C 597.099,490.53 587.432,497.864 576.5,503.5C 573.671,503.675 572.004,502.342 571.5,499.5C 570.109,500.645 568.776,500.645 567.5,499.5C 571.378,498.115 571.378,496.949 567.5,496C 568.056,495.617 568.389,495.117 568.5,494.5C 571.598,492.108 574.931,489.942 578.5,488C 585.698,481.968 592.364,475.468 598.5,468.5 Z"/></g>
<g><path style="opacity:1" fill="#5da1ab" d="M 632.5,454.5 C 630.548,465.685 627.215,476.351 622.5,486.5C 618.689,486.404 618.689,485.738 622.5,484.5C 621.563,482.358 620.23,482.024 618.5,483.5C 623.475,473.886 628.142,464.219 632.5,454.5 Z"/></g>
<g><path style="opacity:0.998" fill="#44799d" d="M 385.5,454.5 C 391.604,458.759 397.604,463.259 403.5,468C 413.026,476.032 422.36,484.198 431.5,492.5C 429.093,490.787 426.426,489.453 423.5,488.5C 422.31,484.057 420.31,483.557 417.5,487C 418.285,489.042 417.952,491.042 416.5,493C 418.991,493.626 418.991,494.459 416.5,495.5C 417.035,497.271 417.869,497.604 419,496.5C 419.112,501.5 418.779,506.5 418,511.5C 417.333,512.833 416.667,512.833 416,511.5C 415.502,514.817 415.335,518.15 415.5,521.5C 410.912,521.881 410.578,523.047 414.5,525C 413.692,525.308 413.025,525.808 412.5,526.5C 415.349,529.084 418.349,531.417 421.5,533.5C 415.315,530.822 409.481,527.489 404,523.5C 404.749,525.225 405.915,526.892 407.5,528.5C 405.534,527.559 403.534,526.559 401.5,525.5C 400.534,527.396 400.201,529.396 400.5,531.5C 399.167,531.5 397.833,531.5 396.5,531.5C 396.5,534.5 396.5,537.5 396.5,540.5C 395.5,540.5 394.5,540.5 393.5,540.5C 393.5,544.5 393.5,548.5 393.5,552.5C 392.5,552.5 391.5,552.5 390.5,552.5C 390.5,557.833 390.5,563.167 390.5,568.5C 389.5,568.5 388.5,568.5 387.5,568.5C 387.5,570.5 387.5,572.5 387.5,574.5C 386.5,574.5 385.5,574.5 384.5,574.5C 384.665,577.518 384.498,580.518 384,583.5C 382.933,584.191 381.766,584.691 380.5,585C 382.35,588.466 381.35,590.299 377.5,590.5C 377.5,593.5 377.5,596.5 377.5,599.5C 376.5,599.5 375.5,599.5 374.5,599.5C 374.5,603.833 374.5,608.167 374.5,612.5C 373.5,612.5 372.5,612.5 371.5,612.5C 371.5,615.5 371.5,618.5 371.5,621.5C 370.5,621.5 369.5,621.5 368.5,621.5C 368.665,624.518 368.498,627.518 368,630.5C 367.333,631.833 366.667,631.833 366,630.5C 364.878,632.42 364.044,634.42 363.5,636.5C 354.728,635.346 346.061,633.679 337.5,631.5C 339.679,626.471 341.012,621.138 341.5,615.5C 342.086,615.291 342.586,614.957 343,614.5C 343.499,610.514 343.666,606.514 343.5,602.5C 344.5,602.5 345.5,602.5 346.5,602.5C 346.198,597.321 346.865,592.321 348.5,587.5C 349.833,587.5 351.167,587.5 352.5,587.5C 354.218,590.41 354.218,587.077 352.5,577.5C 353.5,577.5 354.5,577.5 355.5,577.5C 355.5,572.5 355.5,567.5 355.5,562.5C 356.5,562.5 357.5,562.5 358.5,562.5C 358.5,559.167 358.5,555.833 358.5,552.5C 359.833,552.5 361.167,552.5 362.5,552.5C 362.5,549.5 362.5,546.5 362.5,543.5C 363.5,543.5 364.5,543.5 365.5,543.5C 365.064,540.636 365.897,538.303 368,536.5C 368.499,531.511 368.666,526.511 368.5,521.5C 369.5,521.5 370.5,521.5 371.5,521.5C 371.5,517.167 371.5,512.833 371.5,508.5C 372.5,508.5 373.5,508.5 374.5,508.5C 374.5,503.5 374.5,498.5 374.5,493.5C 376.5,493.5 378.5,493.5 380.5,493.5C 380.176,489.445 380.509,485.445 381.5,481.5C 382.417,482.127 383.417,482.461 384.5,482.5C 390.435,485.136 396.102,488.302 401.5,492C 406.346,495.898 411.346,499.231 416.5,502C 405.568,491.227 394.235,481.06 382.5,471.5C 382.047,470.542 381.381,469.708 380.5,469C 384.349,464.15 383.682,459.817 378.5,456C 379.428,455.612 380.095,454.945 380.5,454C 379.709,452.899 379.709,452.066 380.5,451.5C 381.94,452.952 383.606,453.952 385.5,454.5 Z"/></g>
<g><path style="opacity:1" fill="#4c80a3" d="M 431.5,492.5 C 436.786,495.788 441.786,499.454 446.5,503.5C 444.914,502.587 443.414,502.587 442,503.5C 441.804,501.714 440.971,500.381 439.5,499.5C 438.396,500.631 438.729,501.465 440.5,502C 439.833,503.333 439.167,504.667 438.5,506C 440.246,506.471 441.913,507.138 443.5,508C 442.552,508.483 441.552,508.649 440.5,508.5C 441.801,510.672 442.801,513.005 443.5,515.5C 442.5,515.5 441.5,515.5 440.5,515.5C 440.666,520.511 440.499,525.511 440,530.5C 439.333,531.833 438.667,531.833 438,530.5C 437.505,532.473 437.338,534.473 437.5,536.5C 435.345,536.372 433.345,536.872 431.5,538C 432.942,538.377 433.942,539.21 434.5,540.5C 429.68,538.926 425.347,536.593 421.5,533.5C 418.349,531.417 415.349,529.084 412.5,526.5C 413.025,525.808 413.692,525.308 414.5,525C 410.578,523.047 410.912,521.881 415.5,521.5C 415.335,518.15 415.502,514.817 416,511.5C 416.667,512.833 417.333,512.833 418,511.5C 418.779,506.5 419.112,501.5 419,496.5C 417.869,497.604 417.035,497.271 416.5,495.5C 418.991,494.459 418.991,493.626 416.5,493C 417.952,491.042 418.285,489.042 417.5,487C 420.31,483.557 422.31,484.057 423.5,488.5C 426.426,489.453 429.093,490.787 431.5,492.5 Z"/></g>
<g><path style="opacity:1" fill="#5087ab" d="M 446.5,503.5 C 453.931,507.748 461.264,512.248 468.5,517C 476.474,521.143 484.474,524.977 492.5,528.5C 491.005,528.415 490.005,529.081 489.5,530.5C 490.213,532.776 490.713,535.109 491,537.5C 491.667,536.167 492.333,536.167 493,537.5C 493.499,541.486 493.666,545.486 493.5,549.5C 492.5,549.5 491.5,549.5 490.5,549.5C 490.769,551.429 490.269,553.095 489,554.5C 488.667,554.167 488.333,553.833 488,553.5C 486.055,554.863 483.888,555.697 481.5,556C 484.529,556.539 487.529,557.206 490.5,558C 489.906,558.464 489.239,558.631 488.5,558.5C 469.117,556.261 451.117,550.261 434.5,540.5C 433.942,539.21 432.942,538.377 431.5,538C 433.345,536.872 435.345,536.372 437.5,536.5C 437.338,534.473 437.505,532.473 438,530.5C 438.667,531.833 439.333,531.833 440,530.5C 440.499,525.511 440.666,520.511 440.5,515.5C 441.5,515.5 442.5,515.5 443.5,515.5C 442.801,513.005 441.801,510.672 440.5,508.5C 441.552,508.649 442.552,508.483 443.5,508C 441.913,507.138 440.246,506.471 438.5,506C 439.167,504.667 439.833,503.333 440.5,502C 438.729,501.465 438.396,500.631 439.5,499.5C 440.971,500.381 441.804,501.714 442,503.5C 443.414,502.587 444.914,502.587 446.5,503.5 Z"/></g>
<g><path style="opacity:1" fill="#d1d174" d="M 568.5,494.5 C 568.389,495.117 568.056,495.617 567.5,496C 571.378,496.949 571.378,498.115 567.5,499.5C 568.776,500.645 570.109,500.645 571.5,499.5C 572.004,502.342 573.671,503.675 576.5,503.5C 566.929,508.8 556.596,512.134 545.5,513.5C 541.673,513.56 541.006,512.393 543.5,510C 542.09,509.632 541.09,508.799 540.5,507.5C 544.002,506.993 547.002,505.66 549.5,503.5C 555.777,500.35 562.11,497.35 568.5,494.5 Z"/></g>
<g><path style="opacity:1" fill="#77c7ac" d="M 501.5,507.5 C 503.903,508.091 505.236,509.258 505.5,511C 504.552,511.483 503.552,511.649 502.5,511.5C 488.574,508.204 475.574,502.704 463.5,495C 470.505,497.66 477.505,500.66 484.5,504C 490.024,505.81 495.691,506.977 501.5,507.5 Z"/></g>
<g><path style="opacity:1" fill="#c1d181" d="M 549.5,503.5 C 547.002,505.66 544.002,506.993 540.5,507.5C 541.09,508.799 542.09,509.632 543.5,510C 541.006,512.393 541.673,513.56 545.5,513.5C 545.082,514.222 544.416,514.722 543.5,515C 535.655,515.822 527.989,515.656 520.5,514.5C 525.041,514.669 525.374,514.002 521.5,512.5C 523.21,511.113 524.877,509.779 526.5,508.5C 530.534,508.328 534.534,507.828 538.5,507C 541.977,505.342 545.643,504.175 549.5,503.5 Z"/></g>
<g><path style="opacity:1" fill="#91cb99" d="M 501.5,507.5 C 509.8,508.371 518.133,508.705 526.5,508.5C 524.877,509.779 523.21,511.113 521.5,512.5C 525.374,514.002 525.041,514.669 520.5,514.5C 514.246,514.22 508.246,513.22 502.5,511.5C 503.552,511.649 504.552,511.483 505.5,511C 505.236,509.258 503.903,508.091 501.5,507.5 Z"/></g>
<g><path style="opacity:1" fill="#67a1c0" d="M 622.5,486.5 C 621.458,491.642 619.458,496.309 616.5,500.5C 604.403,518.43 589.403,533.597 571.5,546C 565.148,549.679 558.481,552.512 551.5,554.5C 545.914,556.052 540.247,556.885 534.5,557C 539.384,556.888 541.384,554.388 540.5,549.5C 541.5,549.5 542.5,549.5 543.5,549.5C 543.665,546.482 543.498,543.482 543,540.5C 542.333,539.167 541.667,539.167 541,540.5C 540.517,539.552 540.351,538.552 540.5,537.5C 537.482,537.665 534.482,537.498 531.5,537C 534.833,536.667 538.167,536.333 541.5,536C 534.654,535.828 527.987,535.328 521.5,534.5C 537.818,536.003 553.485,533.503 568.5,527C 589.381,517.282 606.048,502.782 618.5,483.5C 620.23,482.024 621.563,482.358 622.5,484.5C 618.689,485.738 618.689,486.404 622.5,486.5 Z"/></g>
<g><path style="opacity:0.997" fill="#4a7fa4" d="M 407.5,528.5 C 420.297,538.973 433.631,548.639 447.5,557.5C 444.946,556.394 442.279,555.561 439.5,555C 437.776,554.552 437.109,553.718 437.5,552.5C 436.914,552.709 436.414,553.043 436,553.5C 434.274,551.985 432.774,550.318 431.5,548.5C 431.47,550.463 430.303,552.129 428,553.5C 427.231,556.099 427.398,558.599 428.5,561C 427.437,562.188 426.103,562.688 424.5,562.5C 424.5,564.5 424.5,566.5 424.5,568.5C 422.5,568.5 420.5,568.5 418.5,568.5C 418.5,570.5 418.5,572.5 418.5,574.5C 417.167,574.5 415.833,574.5 414.5,574.5C 413.987,578.546 413.154,582.546 412,586.5C 411,586.833 410,587.167 409,587.5C 408.502,590.482 408.335,593.482 408.5,596.5C 407.5,596.5 406.5,596.5 405.5,596.5C 405.5,601.833 405.5,607.167 405.5,612.5C 403.5,613.167 401.5,613.833 399.5,614.5C 399.5,619.833 399.5,625.167 399.5,630.5C 401.5,630.5 403.5,630.5 405.5,630.5C 405.5,632.833 405.5,635.167 405.5,637.5C 401.486,637.334 397.486,637.501 393.5,638C 392.584,638.278 391.918,638.778 391.5,639.5C 382.062,639.048 372.728,638.048 363.5,636.5C 364.044,634.42 364.878,632.42 366,630.5C 366.667,631.833 367.333,631.833 368,630.5C 368.498,627.518 368.665,624.518 368.5,621.5C 369.5,621.5 370.5,621.5 371.5,621.5C 371.5,618.5 371.5,615.5 371.5,612.5C 372.5,612.5 373.5,612.5 374.5,612.5C 374.5,608.167 374.5,603.833 374.5,599.5C 375.5,599.5 376.5,599.5 377.5,599.5C 377.5,596.5 377.5,593.5 377.5,590.5C 381.35,590.299 382.35,588.466 380.5,585C 381.766,584.691 382.933,584.191 384,583.5C 384.498,580.518 384.665,577.518 384.5,574.5C 385.5,574.5 386.5,574.5 387.5,574.5C 387.5,572.5 387.5,570.5 387.5,568.5C 388.5,568.5 389.5,568.5 390.5,568.5C 390.5,563.167 390.5,557.833 390.5,552.5C 391.5,552.5 392.5,552.5 393.5,552.5C 393.5,548.5 393.5,544.5 393.5,540.5C 394.5,540.5 395.5,540.5 396.5,540.5C 396.5,537.5 396.5,534.5 396.5,531.5C 397.833,531.5 399.167,531.5 400.5,531.5C 400.201,529.396 400.534,527.396 401.5,525.5C 403.534,526.559 405.534,527.559 407.5,528.5 Z"/></g>
<g><path style="opacity:1" fill="#f5f9fa" d="M 616.5,500.5 C 610.196,515.786 601.862,529.786 591.5,542.5C 568.033,565.72 539.699,576.387 506.5,574.5C 498.931,574.927 491.597,573.927 484.5,571.5C 479.019,570.228 473.686,568.561 468.5,566.5C 461.384,563.775 454.384,560.775 447.5,557.5C 433.631,548.639 420.297,538.973 407.5,528.5C 405.915,526.892 404.749,525.225 404,523.5C 409.481,527.489 415.315,530.822 421.5,533.5C 425.347,536.593 429.68,538.926 434.5,540.5C 451.117,550.261 469.117,556.261 488.5,558.5C 509.891,563.456 530.891,562.122 551.5,554.5C 558.481,552.512 565.148,549.679 571.5,546C 589.403,533.597 604.403,518.43 616.5,500.5 Z"/></g>
<g><path style="opacity:1" fill="#5c94b7" d="M 492.5,528.5 C 501.934,531.608 511.601,533.608 521.5,534.5C 527.987,535.328 534.654,535.828 541.5,536C 538.167,536.333 534.833,536.667 531.5,537C 534.482,537.498 537.482,537.665 540.5,537.5C 540.351,538.552 540.517,539.552 541,540.5C 541.667,539.167 542.333,539.167 543,540.5C 543.498,543.482 543.665,546.482 543.5,549.5C 542.5,549.5 541.5,549.5 540.5,549.5C 541.384,554.388 539.384,556.888 534.5,557C 540.247,556.885 545.914,556.052 551.5,554.5C 530.891,562.122 509.891,563.456 488.5,558.5C 489.239,558.631 489.906,558.464 490.5,558C 487.529,557.206 484.529,556.539 481.5,556C 483.888,555.697 486.055,554.863 488,553.5C 488.333,553.833 488.667,554.167 489,554.5C 490.269,553.095 490.769,551.429 490.5,549.5C 491.5,549.5 492.5,549.5 493.5,549.5C 493.666,545.486 493.499,541.486 493,537.5C 492.333,536.167 491.667,536.167 491,537.5C 490.713,535.109 490.213,532.776 489.5,530.5C 490.005,529.081 491.005,528.415 492.5,528.5 Z"/></g>
<g><path style="opacity:0.994" fill="#4e85ab" d="M 447.5,557.5 C 454.384,560.775 461.384,563.775 468.5,566.5C 468.265,567.097 467.765,567.43 467,567.5C 464.349,565.836 461.516,565.336 458.5,566C 459.624,566.249 460.624,566.749 461.5,567.5C 461.333,567.833 461.167,568.167 461,568.5C 458.226,567.477 455.393,567.477 452.5,568.5C 452.5,570.5 452.5,572.5 452.5,574.5C 450.5,574.5 448.5,574.5 446.5,574.5C 446.5,575.5 446.5,576.5 446.5,577.5C 445.5,577.5 444.5,577.5 443.5,577.5C 443.5,581.833 443.5,586.167 443.5,590.5C 442.5,590.5 441.5,590.5 440.5,590.5C 440.5,594.5 440.5,598.5 440.5,602.5C 439.5,602.5 438.5,602.5 437.5,602.5C 437.662,604.527 437.495,606.527 437,608.5C 436,608.833 435,609.167 434,609.5C 433.231,612.099 433.398,614.599 434.5,617C 433.437,618.188 432.103,618.688 430.5,618.5C 430.5,621.5 430.5,624.5 430.5,627.5C 429.5,627.5 428.5,627.5 427.5,627.5C 427.5,629.5 427.5,631.5 427.5,633.5C 426.5,633.5 425.5,633.5 424.5,633.5C 424.634,635.292 424.301,636.958 423.5,638.5C 412.85,639.238 402.183,639.572 391.5,639.5C 391.918,638.778 392.584,638.278 393.5,638C 397.486,637.501 401.486,637.334 405.5,637.5C 405.5,635.167 405.5,632.833 405.5,630.5C 403.5,630.5 401.5,630.5 399.5,630.5C 399.5,625.167 399.5,619.833 399.5,614.5C 401.5,613.833 403.5,613.167 405.5,612.5C 405.5,607.167 405.5,601.833 405.5,596.5C 406.5,596.5 407.5,596.5 408.5,596.5C 408.335,593.482 408.502,590.482 409,587.5C 410,587.167 411,586.833 412,586.5C 413.154,582.546 413.987,578.546 414.5,574.5C 415.833,574.5 417.167,574.5 418.5,574.5C 418.5,572.5 418.5,570.5 418.5,568.5C 420.5,568.5 422.5,568.5 424.5,568.5C 424.5,566.5 424.5,564.5 424.5,562.5C 426.103,562.688 427.437,562.188 428.5,561C 427.398,558.599 427.231,556.099 428,553.5C 430.303,552.129 431.47,550.463 431.5,548.5C 432.774,550.318 434.274,551.985 436,553.5C 436.414,553.043 436.914,552.709 437.5,552.5C 437.109,553.718 437.776,554.552 439.5,555C 442.279,555.561 444.946,556.394 447.5,557.5 Z"/></g>
<g><path style="opacity:0.995" fill="#538bb2" d="M 468.5,566.5 C 473.686,568.561 479.019,570.228 484.5,571.5C 481.176,571.838 477.843,571.838 474.5,571.5C 475.908,572.243 477.241,573.077 478.5,574C 477.568,577.085 476.901,580.252 476.5,583.5C 477.833,583.5 479.167,583.5 480.5,583.5C 480.357,585.262 480.691,586.929 481.5,588.5C 480.68,590.111 479.346,590.778 477.5,590.5C 477.5,593.5 477.5,596.5 477.5,599.5C 476.5,599.5 475.5,599.5 474.5,599.5C 474.5,595.5 474.5,591.5 474.5,587.5C 473.5,587.5 472.5,587.5 471.5,587.5C 471.5,592.5 471.5,597.5 471.5,602.5C 470.5,602.5 469.5,602.5 468.5,602.5C 467.879,608.937 466.879,615.271 465.5,621.5C 464.5,621.5 463.5,621.5 462.5,621.5C 462.508,624.545 462.841,627.545 463.5,630.5C 450.427,634.315 437.094,636.981 423.5,638.5C 424.301,636.958 424.634,635.292 424.5,633.5C 425.5,633.5 426.5,633.5 427.5,633.5C 427.5,631.5 427.5,629.5 427.5,627.5C 428.5,627.5 429.5,627.5 430.5,627.5C 430.5,624.5 430.5,621.5 430.5,618.5C 432.103,618.688 433.437,618.188 434.5,617C 433.398,614.599 433.231,612.099 434,609.5C 435,609.167 436,608.833 437,608.5C 437.495,606.527 437.662,604.527 437.5,602.5C 438.5,602.5 439.5,602.5 440.5,602.5C 440.5,598.5 440.5,594.5 440.5,590.5C 441.5,590.5 442.5,590.5 443.5,590.5C 443.5,586.167 443.5,581.833 443.5,577.5C 444.5,577.5 445.5,577.5 446.5,577.5C 446.5,576.5 446.5,575.5 446.5,574.5C 448.5,574.5 450.5,574.5 452.5,574.5C 452.5,572.5 452.5,570.5 452.5,568.5C 455.393,567.477 458.226,567.477 461,568.5C 461.167,568.167 461.333,567.833 461.5,567.5C 460.624,566.749 459.624,566.249 458.5,566C 461.516,565.336 464.349,565.836 467,567.5C 467.765,567.43 468.265,567.097 468.5,566.5 Z"/></g>
<g><path style="opacity:0.996" fill="#66a0c0" d="M 591.5,542.5 C 573.564,567.959 551.231,588.626 524.5,604.5C 524.5,600.833 524.5,597.167 524.5,593.5C 526.5,593.5 528.5,593.5 530.5,593.5C 530.5,589.167 530.5,584.833 530.5,580.5C 529.5,580.5 528.5,580.5 527.5,580.5C 527.5,579.5 527.5,578.5 527.5,577.5C 524.482,577.665 521.482,577.498 518.5,577C 520.5,576.667 522.5,576.333 524.5,576C 518.319,575.828 512.319,575.328 506.5,574.5C 539.699,576.387 568.033,565.72 591.5,542.5 Z"/></g>
<g><path style="opacity:0.992" fill="#5a93b8" d="M 484.5,571.5 C 491.597,573.927 498.931,574.927 506.5,574.5C 512.319,575.328 518.319,575.828 524.5,576C 522.5,576.333 520.5,576.667 518.5,577C 521.482,577.498 524.482,577.665 527.5,577.5C 527.5,578.5 527.5,579.5 527.5,580.5C 528.5,580.5 529.5,580.5 530.5,580.5C 530.5,584.833 530.5,589.167 530.5,593.5C 528.5,593.5 526.5,593.5 524.5,593.5C 524.5,597.167 524.5,600.833 524.5,604.5C 505.495,616.166 485.162,624.833 463.5,630.5C 462.841,627.545 462.508,624.545 462.5,621.5C 463.5,621.5 464.5,621.5 465.5,621.5C 466.879,615.271 467.879,608.937 468.5,602.5C 469.5,602.5 470.5,602.5 471.5,602.5C 471.5,597.5 471.5,592.5 471.5,587.5C 472.5,587.5 473.5,587.5 474.5,587.5C 474.5,591.5 474.5,595.5 474.5,599.5C 475.5,599.5 476.5,599.5 477.5,599.5C 477.5,596.5 477.5,593.5 477.5,590.5C 479.346,590.778 480.68,590.111 481.5,588.5C 480.691,586.929 480.357,585.262 480.5,583.5C 479.167,583.5 477.833,583.5 476.5,583.5C 476.901,580.252 477.568,577.085 478.5,574C 477.241,573.077 475.908,572.243 474.5,571.5C 477.843,571.838 481.176,571.838 484.5,571.5 Z"/></g>
</svg>
